<?xml version="1.0" encoding="UTF-8" standalone="no"?>
<svg
   xmlns:dc="http://purl.org/dc/elements/1.1/"
   xmlns:cc="http://creativecommons.org/ns#"
   xmlns:rdf="http://www.w3.org/1999/02/22-rdf-syntax-ns#"
   xmlns:svg="http://www.w3.org/2000/svg"
   xmlns="http://www.w3.org/2000/svg"
   xmlns:sodipodi="http://sodipodi.sourceforge.net/DTD/sodipodi-0.dtd"
   xmlns:inkscape="http://www.inkscape.org/namespaces/inkscape"
   version="1.1"
   id="Capa_1"
   x="0px"
   y="0px"
   viewBox="0 0 612 612"
   style="enable-background:new 0 0 612 612;"
   xml:space="preserve"
   sodipodi:docname="arrow.svg"
   inkscape:version="1.0.1 (c497b03c, 2020-09-10)"><metadata
   id="metadata31"><rdf:RDF><cc:Work
       rdf:about=""><dc:format>image/svg+xml</dc:format><dc:type
         rdf:resource="http://purl.org/dc/dcmitype/StillImage" /></cc:Work></rdf:RDF></metadata><defs
   id="defs29" /><sodipodi:namedview
   pagecolor="#ffffff"
   bordercolor="#666666"
   borderopacity="1"
   objecttolerance="10"
   gridtolerance="10"
   guidetolerance="10"
   inkscape:pageopacity="0"
   inkscape:pageshadow="2"
   inkscape:window-width="689"
   inkscape:window-height="480"
   id="namedview27"
   showgrid="false"
   inkscape:zoom="0.14701509"
   inkscape:cx="-34.192579"
   inkscape:cy="264.00144"
   inkscape:window-x="0"
   inkscape:window-y="25"
   inkscape:window-maximized="0"
   inkscape:current-layer="Capa_1" />
<style
   type="text/css"
   id="style17">
	.st0{fill:#22b7eb;}
</style>
<g
   id="g24"
   style="fill:#00d455">
	<g
   id="Right"
   style="fill:#00d455">
		<g
   id="g21"
   style="fill:#00d455">
			<path
   class="st0"
   d="M277.6,178.4L277.6,178.4c-5.2-4.6-11.9-7.6-19.4-7.6c-15.8,0-28.7,12.9-28.7,28.7c0,8.4,3.6,15.8,9.4,21.1     l-0.1,0.1l91.7,84l-91.7,84.1l0.1,0.1c-5.7,5.2-9.4,12.7-9.4,21.1c0,15.8,12.9,28.7,28.7,28.7c7.5,0,14.2-2.9,19.3-7.6l0.1,0.1     l114.7-105.3c5.9-5.5,9.3-13.1,9.3-21.2s-3.4-15.7-9.3-21.2L277.6,178.4z M306-1.3c-169,0-306,137-306,306s137,306,306,306     s306-137,306-306S475-1.3,306-1.3z M306,553.4c-137.1,0-248.6-111.5-248.6-248.6S168.9,56.1,306,56.1s248.6,111.5,248.6,248.6     S443.1,553.4,306,553.4z"
   id="path19"
   style="fill:#00d455" />
		</g>
	</g>
</g>
</svg>
