<?xml version="1.0" encoding="UTF-8" standalone="no"?>
<svg
   xmlns:dc="http://purl.org/dc/elements/1.1/"
   xmlns:cc="http://creativecommons.org/ns#"
   xmlns:rdf="http://www.w3.org/1999/02/22-rdf-syntax-ns#"
   xmlns:svg="http://www.w3.org/2000/svg"
   xmlns="http://www.w3.org/2000/svg"
   xmlns:sodipodi="http://sodipodi.sourceforge.net/DTD/sodipodi-0.dtd"
   xmlns:inkscape="http://www.inkscape.org/namespaces/inkscape"
   width="172.9258mm"
   height="19.650846mm"
   viewBox="0 0 172.9258 19.650846"
   version="1.1"
   id="svg8"
   inkscape:version="1.0.1 (c497b03c, 2020-09-10)"
   sodipodi:docname="light-wide-1.svg">
  <defs
     id="defs2" />
  <sodipodi:namedview
     id="base"
     pagecolor="#ffffff"
     bordercolor="#666666"
     borderopacity="1.0"
     inkscape:pageopacity="0.0"
     inkscape:pageshadow="2"
     inkscape:zoom="0.76334578"
     inkscape:cx="395.68545"
     inkscape:cy="112.2949"
     inkscape:document-units="mm"
     inkscape:current-layer="text23"
     inkscape:document-rotation="0"
     showgrid="false"
     inkscape:window-width="1252"
     inkscape:window-height="943"
     inkscape:window-x="0"
     inkscape:window-y="25"
     inkscape:window-maximized="0" />
  <metadata
     id="metadata5">
    <rdf:RDF>
      <cc:Work
         rdf:about="">
        <dc:format>image/svg+xml</dc:format>
        <dc:type
           rdf:resource="http://purl.org/dc/dcmitype/StillImage" />
        <dc:title />
      </cc:Work>
    </rdf:RDF>
  </metadata>
  <g
     inkscape:label="Layer 1"
     inkscape:groupmode="layer"
     id="layer1"
     transform="translate(-4.0732953,-4.4081063)">
    <path
       d="M 29.641305,12.647189 C 29.443018,11.618751 28.937338,10.68879 28.217059,10.02891 27.49678,9.3690296 26.591135,9.0055406 25.666847,9.0055406 h -0.0091 L 25.514099,8.2597376 C 25.30437,7.1719253 24.769458,6.1883811 24.007655,5.4903663 23.246066,4.7925936 22.288306,4.4081063 21.310634,4.4081063 H 4.0732953 V 5.335896 c 0,1.5722226 0.5673256,2.9960076 1.4805976,4.0203416 v 0.6960844 c 0,1.657905 0.63088,3.150961 1.633127,4.184467 v 0.531717 c 0,3.112102 2.222486,5.644214 4.9540391,5.644214 h 0.536397 c 0.619228,2.116007 2.37332,3.646232 4.436073,3.646232 H 31.840488 Z M 8.9167499,15.696295 h 8.5999231 v -1.855579 h -7.008741 c -1.5526261,0 -2.8603571,-1.218871 -3.2245221,-2.860604 H 15.883546 V 9.1245316 H 9.0273339 c -1.552837,0 -2.860356,-1.2188702 -3.224521,-2.8608457 H 21.31064 c 1.246505,0 2.345356,1.0069556 2.612706,2.3940547 l 1.907683,9.8994004 h -13.68997 c -1.552625,0 -2.8601441,-1.21887 -3.2243091,-2.860846 z m 5.5321691,4.716425 h 13.407365 l -1.835017,-9.520947 c 0.985724,0.167505 1.811078,1.021197 2.029281,2.153419 l 1.764896,9.158422 H 17.113529 c -1.145032,-1.75e-4 -2.144314,-0.72408 -2.66461,-1.790894 z m 0,0"
       id="path10"
       style="fill:#2ca05a;stroke-width:0.0578874" />
    <g
       aria-label="FLOWFLIGHT"
       transform="scale(0.97235346,1.0284326)"
       id="text23"
       style="font-size:17.4388px;line-height:1.25;font-family:Monoton;-inkscape-font-specification:Monoton;letter-spacing:1.85208px;fill:#37c871;stroke-width:0.242208">
      <g
         id="g39"
         style="opacity:1">
        <path
           style="color:#000000;font-style:normal;font-variant:normal;font-weight:normal;font-stretch:normal;font-size:17.43880000000000052px;line-height:1.25;font-family:Monoton;-inkscape-font-specification:Monoton;font-variant-ligatures:normal;font-variant-position:normal;font-variant-caps:normal;font-variant-numeric:normal;font-variant-alternates:normal;font-variant-east-asian:normal;font-feature-settings:normal;font-variation-settings:normal;text-indent:0;text-align:start;text-decoration:none;text-decoration-line:none;text-decoration-style:solid;text-decoration-color:#000000;letter-spacing:1.85207999999999995px;word-spacing:normal;text-transform:none;writing-mode:lr-tb;direction:ltr;text-orientation:mixed;dominant-baseline:auto;baseline-shift:baseline;text-anchor:start;white-space:normal;shape-padding:0;shape-margin:0;inline-size:0;clip-rule:nonzero;display:inline;overflow:visible;visibility:visible;isolation:auto;mix-blend-mode:normal;color-interpolation:sRGB;color-interpolation-filters:linearRGB;solid-color:#000000;solid-opacity:1;vector-effect:none;fill:#37c871;fill-opacity:1;fill-rule:nonzero;stroke-width:0.242208;stroke-linecap:butt;stroke-linejoin:miter;stroke-miterlimit:4;stroke-dasharray:none;stroke-dashoffset:0;stroke-opacity:1.0;color-rendering:auto;image-rendering:auto;shape-rendering:auto;text-rendering:auto;enable-background:accumulate;stop-color:#000000;stop-opacity:1;stroke:none;"
           d="M 42.610078,21.665789 H 41.996996 V 7.5648833 h 6.786486 V 8.1779661 H 42.610078 V 8.791049 h 6.173404 v 0.6130828 h -6.173404 v 0.6130832 h 6.173404 v 0.613083 h -6.173404 v 3.065414 h 5.883893 v 0.613083 h -5.883893 v 0.613082 h 5.883893 v 0.613083 h -5.883893 v 0.613083 h 5.883893 v 0.613083 h -5.883893 z m -1.226165,0 H 40.77083 V 7.5648833 h 0.613083 z m -1.226166,0 H 39.544664 V 7.5648833 h 0.613083 z m -1.226166,0 H 38.318499 V 7.5648833 h 0.613082 z"
           id="path41" />
        <path
           style="color:#000000;font-style:normal;font-variant:normal;font-weight:normal;font-stretch:normal;font-size:17.43880000000000052px;line-height:1.25;font-family:Monoton;-inkscape-font-specification:Monoton;font-variant-ligatures:normal;font-variant-position:normal;font-variant-caps:normal;font-variant-numeric:normal;font-variant-alternates:normal;font-variant-east-asian:normal;font-feature-settings:normal;font-variation-settings:normal;text-indent:0;text-align:start;text-decoration:none;text-decoration-line:none;text-decoration-style:solid;text-decoration-color:#000000;letter-spacing:1.85207999999999995px;word-spacing:normal;text-transform:none;writing-mode:lr-tb;direction:ltr;text-orientation:mixed;dominant-baseline:auto;baseline-shift:baseline;text-anchor:start;white-space:normal;shape-padding:0;shape-margin:0;inline-size:0;clip-rule:nonzero;display:inline;overflow:visible;visibility:visible;isolation:auto;mix-blend-mode:normal;color-interpolation:sRGB;color-interpolation-filters:linearRGB;solid-color:#000000;solid-opacity:1;vector-effect:none;fill-opacity:1;fill-rule:nonzero;stroke-width:0.242208;stroke-linecap:butt;stroke-linejoin:miter;stroke-miterlimit:4;stroke-dasharray:none;stroke-dashoffset:0;stroke-opacity:1.0;color-rendering:auto;image-rendering:auto;shape-rendering:auto;text-rendering:auto;enable-background:accumulate;stop-color:#000000;stop-opacity:1;stroke:none;"
           d="M 38.197266 7.4433594 L 38.197266 21.787109 L 39.052734 21.787109 L 39.052734 21.666016 L 39.052734 7.4433594 L 38.197266 7.4433594 z M 39.423828 7.4433594 L 39.423828 21.787109 L 40.279297 21.787109 L 40.279297 21.666016 L 40.279297 7.4433594 L 39.423828 7.4433594 z M 40.650391 7.4433594 L 40.650391 21.787109 L 41.505859 21.787109 L 41.505859 21.666016 L 41.505859 7.4433594 L 40.650391 7.4433594 z M 41.875 7.4433594 L 41.875 21.787109 L 42.730469 21.787109 L 42.730469 21.666016 L 42.730469 16.882812 L 48.615234 16.882812 L 48.615234 16.027344 L 42.730469 16.027344 L 42.730469 15.65625 L 48.615234 15.65625 L 48.615234 14.800781 L 42.730469 14.800781 L 42.730469 14.429688 L 48.615234 14.429688 L 48.615234 13.574219 L 42.730469 13.574219 L 42.730469 10.751953 L 48.904297 10.751953 L 48.904297 9.8964844 L 42.730469 9.8964844 L 42.730469 9.5253906 L 48.904297 9.5253906 L 48.904297 8.6699219 L 42.730469 8.6699219 L 42.730469 8.2988281 L 48.904297 8.2988281 L 48.904297 7.4433594 L 41.875 7.4433594 z M 38.439453 7.6855469 L 38.810547 7.6855469 L 38.810547 21.544922 L 38.439453 21.544922 L 38.439453 7.6855469 z M 39.666016 7.6855469 L 40.037109 7.6855469 L 40.037109 21.544922 L 39.666016 21.544922 L 39.666016 7.6855469 z M 40.892578 7.6855469 L 41.263672 7.6855469 L 41.263672 21.544922 L 40.892578 21.544922 L 40.892578 7.6855469 z M 42.117188 7.6855469 L 48.662109 7.6855469 L 48.662109 8.0566406 L 42.488281 8.0566406 L 42.488281 8.9121094 L 48.662109 8.9121094 L 48.662109 9.2832031 L 42.488281 9.2832031 L 42.488281 10.138672 L 48.662109 10.138672 L 48.662109 10.509766 L 42.488281 10.509766 L 42.488281 13.816406 L 48.373047 13.816406 L 48.373047 14.1875 L 42.488281 14.1875 L 42.488281 15.042969 L 48.373047 15.042969 L 48.373047 15.414062 L 42.488281 15.414062 L 42.488281 16.269531 L 48.373047 16.269531 L 48.373047 16.640625 L 42.488281 16.640625 L 42.488281 21.544922 L 42.117188 21.544922 L 42.117188 7.6855469 z "
           id="path43" />
      </g>
      <g
         id="g45"
         style="opacity:1">
        <path
           style="color:#000000;font-style:normal;font-variant:normal;font-weight:normal;font-stretch:normal;font-size:17.43880000000000052px;line-height:1.25;font-family:Monoton;-inkscape-font-specification:Monoton;font-variant-ligatures:normal;font-variant-position:normal;font-variant-caps:normal;font-variant-numeric:normal;font-variant-alternates:normal;font-variant-east-asian:normal;font-feature-settings:normal;font-variation-settings:normal;text-indent:0;text-align:start;text-decoration:none;text-decoration-line:none;text-decoration-style:solid;text-decoration-color:#000000;letter-spacing:1.85207999999999995px;word-spacing:normal;text-transform:none;writing-mode:lr-tb;direction:ltr;text-orientation:mixed;dominant-baseline:auto;baseline-shift:baseline;text-anchor:start;white-space:normal;shape-padding:0;shape-margin:0;inline-size:0;clip-rule:nonzero;display:inline;overflow:visible;visibility:visible;isolation:auto;mix-blend-mode:normal;color-interpolation:sRGB;color-interpolation-filters:linearRGB;solid-color:#000000;solid-opacity:1;vector-effect:none;fill:#37c871;fill-opacity:1;fill-rule:nonzero;stroke-width:0.242208;stroke-linecap:butt;stroke-linejoin:miter;stroke-miterlimit:4;stroke-dasharray:none;stroke-dashoffset:0;stroke-opacity:1.0;color-rendering:auto;image-rendering:auto;shape-rendering:auto;text-rendering:auto;enable-background:accumulate;stop-color:#000000;stop-opacity:1;stroke:none;"
           d="m 52.091634,7.5648833 h 0.613083 V 21.665789 h -0.613083 z m 3.678497,0 h 0.613083 V 18.600374 h 4.904662 v 0.613083 h -4.904662 v 0.613083 h 4.904662 v 0.613083 h -4.904662 v 0.613083 h 4.904662 v 0.613083 h -5.517745 z m -1.226166,0 h 0.613083 V 21.665789 h -0.613083 z m -1.226166,0 h 0.613083 V 21.665789 h -0.613083 z"
           id="path47" />
        <path
           style="color:#000000;font-style:normal;font-variant:normal;font-weight:normal;font-stretch:normal;font-size:17.43880000000000052px;line-height:1.25;font-family:Monoton;-inkscape-font-specification:Monoton;font-variant-ligatures:normal;font-variant-position:normal;font-variant-caps:normal;font-variant-numeric:normal;font-variant-alternates:normal;font-variant-east-asian:normal;font-feature-settings:normal;font-variation-settings:normal;text-indent:0;text-align:start;text-decoration:none;text-decoration-line:none;text-decoration-style:solid;text-decoration-color:#000000;letter-spacing:1.85207999999999995px;word-spacing:normal;text-transform:none;writing-mode:lr-tb;direction:ltr;text-orientation:mixed;dominant-baseline:auto;baseline-shift:baseline;text-anchor:start;white-space:normal;shape-padding:0;shape-margin:0;inline-size:0;clip-rule:nonzero;display:inline;overflow:visible;visibility:visible;isolation:auto;mix-blend-mode:normal;color-interpolation:sRGB;color-interpolation-filters:linearRGB;solid-color:#000000;solid-opacity:1;vector-effect:none;fill-opacity:1;fill-rule:nonzero;stroke-width:0.242208;stroke-linecap:butt;stroke-linejoin:miter;stroke-miterlimit:4;stroke-dasharray:none;stroke-dashoffset:0;stroke-opacity:1.0;color-rendering:auto;image-rendering:auto;shape-rendering:auto;text-rendering:auto;enable-background:accumulate;stop-color:#000000;stop-opacity:1;stroke:none;"
           d="M 51.970703 7.4433594 L 51.970703 7.5644531 L 51.970703 21.787109 L 52.826172 21.787109 L 52.826172 7.4433594 L 51.970703 7.4433594 z M 53.197266 7.4433594 L 53.197266 7.5644531 L 53.197266 21.787109 L 54.052734 21.787109 L 54.052734 7.4433594 L 53.197266 7.4433594 z M 54.423828 7.4433594 L 54.423828 7.5644531 L 54.423828 21.787109 L 55.277344 21.787109 L 55.277344 7.4433594 L 54.423828 7.4433594 z M 55.648438 7.4433594 L 55.648438 7.5644531 L 55.648438 21.787109 L 61.408203 21.787109 L 61.408203 20.931641 L 56.503906 20.931641 L 56.503906 20.560547 L 61.408203 20.560547 L 61.408203 19.705078 L 56.503906 19.705078 L 56.503906 19.333984 L 61.408203 19.333984 L 61.408203 18.478516 L 56.503906 18.478516 L 56.503906 7.4433594 L 55.648438 7.4433594 z M 52.212891 7.6855469 L 52.583984 7.6855469 L 52.583984 21.544922 L 52.212891 21.544922 L 52.212891 7.6855469 z M 53.439453 7.6855469 L 53.810547 7.6855469 L 53.810547 21.544922 L 53.439453 21.544922 L 53.439453 7.6855469 z M 54.666016 7.6855469 L 55.035156 7.6855469 L 55.035156 21.544922 L 54.666016 21.544922 L 54.666016 7.6855469 z M 55.890625 7.6855469 L 56.261719 7.6855469 L 56.261719 18.720703 L 61.166016 18.720703 L 61.166016 19.091797 L 56.261719 19.091797 L 56.261719 19.947266 L 61.166016 19.947266 L 61.166016 20.318359 L 56.261719 20.318359 L 56.261719 21.173828 L 61.166016 21.173828 L 61.166016 21.544922 L 55.890625 21.544922 L 55.890625 7.6855469 z "
           id="path49" />
      </g>
      <g
         id="g51"
         style="opacity:1">
        <path
           style="color:#000000;font-style:normal;font-variant:normal;font-weight:normal;font-stretch:normal;font-size:17.43880000000000052px;line-height:1.25;font-family:Monoton;-inkscape-font-specification:Monoton;font-variant-ligatures:normal;font-variant-position:normal;font-variant-caps:normal;font-variant-numeric:normal;font-variant-alternates:normal;font-variant-east-asian:normal;font-feature-settings:normal;font-variation-settings:normal;text-indent:0;text-align:start;text-decoration:none;text-decoration-line:none;text-decoration-style:solid;text-decoration-color:#000000;letter-spacing:1.85207999999999995px;word-spacing:normal;text-transform:none;writing-mode:lr-tb;direction:ltr;text-orientation:mixed;dominant-baseline:auto;baseline-shift:baseline;text-anchor:start;white-space:normal;shape-padding:0;shape-margin:0;inline-size:0;clip-rule:nonzero;display:inline;overflow:visible;visibility:visible;isolation:auto;mix-blend-mode:normal;color-interpolation:sRGB;color-interpolation-filters:linearRGB;solid-color:#000000;solid-opacity:1;vector-effect:none;fill:#37c871;fill-opacity:1;fill-rule:nonzero;stroke-width:0.242208;stroke-linecap:butt;stroke-linejoin:miter;stroke-miterlimit:4;stroke-dasharray:none;stroke-dashoffset:0;stroke-opacity:1.0;color-rendering:auto;image-rendering:auto;shape-rendering:auto;text-rendering:auto;enable-background:accumulate;stop-color:#000000;stop-opacity:1;stroke:none;"
           d="m 69.466631,12.231125 c -0.658496,0.658497 -0.987744,1.453234 -0.987744,2.384211 0,0.930977 0.329248,1.725714 0.987744,2.384211 0.658497,0.658497 1.453234,0.987745 2.384211,0.987745 0.930978,0 1.725715,-0.329248 2.384211,-0.987745 0.658497,-0.658497 0.987745,-1.453234 0.987745,-2.384211 0,-0.930977 -0.329248,-1.725714 -0.987745,-2.384211 -0.658496,-0.658497 -1.453233,-0.987745 -2.384211,-0.987745 -0.930977,0 -1.725714,0.329248 -2.384211,0.987745 z m -1.285771,3.933948 c -0.210037,-0.493872 -0.315056,-1.010451 -0.315056,-1.549737 0,-0.539286 0.105019,-1.053027 0.315056,-1.541222 0.210038,-0.493873 0.493873,-0.919625 0.851504,-1.277256 0.357632,-0.357632 0.780546,-0.641467 1.268741,-0.851504 0.493872,-0.210037 1.010451,-0.315056 1.549737,-0.315056 0.539286,0 1.053027,0.105019 1.541222,0.315056 0.493873,0.210037 0.919625,0.493872 1.277256,0.851504 0.357632,0.357631 0.641467,0.783383 0.851504,1.277256 0.210038,0.488195 0.315057,1.001936 0.315057,1.541222 0,0.539286 -0.105019,1.055865 -0.315057,1.549737 -0.210037,0.488196 -0.493872,0.91111 -0.851504,1.268741 -0.357631,0.357632 -0.783383,0.641467 -1.277256,0.851504 -0.488195,0.210037 -1.001936,0.315056 -1.541222,0.315056 -0.539286,0 -1.055865,-0.105019 -1.549737,-0.315056 C 69.81291,18.075281 69.389996,17.791446 69.032364,17.433814 68.674733,17.076183 68.390898,16.653269 68.18086,16.165073 Z M 67.865804,12.30776 c -0.408722,0.70391 -0.613083,1.473102 -0.613083,2.307576 0,0.834474 0.204361,1.603666 0.613083,2.307576 0.414399,0.70391 0.973553,1.263064 1.677463,1.677462 0.703909,0.408722 1.473101,0.613083 2.307575,0.613083 0.834474,0 1.603666,-0.204361 2.307576,-0.613083 0.70391,-0.414398 1.260226,-0.973552 1.668948,-1.677462 0.414399,-0.70391 0.621598,-1.473102 0.621598,-2.307576 0,-0.834474 -0.207199,-1.603666 -0.621598,-2.307576 -0.408722,-0.70391 -0.965038,-1.260226 -1.668948,-1.668947 -0.70391,-0.414399 -1.473102,-0.621598 -2.307576,-0.621598 -0.834474,0 -1.603666,0.207199 -2.307575,0.621598 -0.70391,0.408721 -1.263064,0.965037 -1.677463,1.668947 z m -0.527933,4.921693 c -0.465489,-0.800413 -0.698233,-1.671786 -0.698233,-2.614117 0,-0.942331 0.232744,-1.813704 0.698233,-2.614117 0.465489,-0.800414 1.098441,-1.433365 1.898854,-1.898854 0.800414,-0.4654888 1.671786,-0.6982332 2.614117,-0.6982332 0.942331,0 1.813704,0.2327444 2.614117,0.6982332 0.800414,0.465489 1.433365,1.09844 1.898854,1.898854 0.465489,0.800413 0.698233,1.671786 0.698233,2.614117 0,0.942331 -0.232744,1.813704 -0.698233,2.614117 -0.465489,0.800414 -1.09844,1.433365 -1.898854,1.898854 -0.800413,0.465489 -1.671786,0.698233 -2.614117,0.698233 -0.942331,0 -1.813703,-0.232744 -2.614117,-0.698233 -0.800413,-0.465489 -1.433365,-1.09844 -1.898854,-1.898854 z m -0.851504,-4.879118 c -0.306541,0.72094 -0.459812,1.47594 -0.459812,2.265001 0,0.78906 0.153271,1.54406 0.459812,2.265 0.306541,0.72094 0.718102,1.342538 1.234681,1.864794 0.522256,0.516579 1.143854,0.92814 1.864794,1.234681 0.72094,0.306541 1.47594,0.459812 2.265,0.459812 0.789061,0 1.544061,-0.153271 2.265001,-0.459812 0.72094,-0.306541 1.339699,-0.718102 1.856278,-1.234681 0.522256,-0.522256 0.936655,-1.143854 1.243196,-1.864794 0.306541,-0.72094 0.459812,-1.47594 0.459812,-2.265 0,-0.789061 -0.153271,-1.544061 -0.459812,-2.265001 -0.306541,-0.72094 -0.72094,-1.339699 -1.243196,-1.856278 C 75.455542,9.9718012 74.836783,9.5574026 74.115843,9.2508611 73.394903,8.9443197 72.639903,8.791049 71.850842,8.791049 c -0.78906,0 -1.54406,0.1532707 -2.265,0.4598121 -0.72094,0.3065415 -1.342538,0.7209401 -1.864794,1.2431959 -0.516579,0.516579 -0.92814,1.135338 -1.234681,1.856278 z m -0.212876,5.492201 c -0.573346,-0.987745 -0.860019,-2.063478 -0.860019,-3.2272 0,-1.163722 0.286673,-2.239455 0.860019,-3.2272 0.579023,-0.987745 1.362406,-1.7682898 2.350151,-2.3416358 0.987745,-0.5790227 2.063478,-0.8685341 3.2272,-0.8685341 1.163722,0 2.239455,0.2895114 3.2272,0.8685341 0.987745,0.573346 1.76829,1.3538908 2.341636,2.3416358 0.579023,0.987745 0.868534,2.063478 0.868534,3.2272 0,1.163722 -0.289511,2.239455 -0.868534,3.2272 -0.573346,0.987745 -1.353891,1.771128 -2.341636,2.350151 -0.987745,0.573346 -2.063478,0.860019 -3.2272,0.860019 -1.163722,0 -2.239455,-0.286673 -3.2272,-0.860019 -0.987745,-0.579023 -1.771128,-1.362406 -2.350151,-2.350151 z m -0.919624,-5.960528 c -0.368985,0.868534 -0.553477,1.779643 -0.553477,2.733328 0,0.953685 0.184492,1.867632 0.553477,2.741843 0.374662,0.868534 0.877049,1.617857 1.507162,2.24797 0.630113,0.630113 1.379436,1.1325 2.24797,1.507162 0.874211,0.368985 1.788159,0.553478 2.741843,0.553478 0.953685,0 1.864794,-0.184493 2.733328,-0.553478 0.874211,-0.374662 1.626372,-0.877049 2.256485,-1.507162 0.630113,-0.630113 1.129662,-1.379436 1.498647,-2.24797 0.374662,-0.874211 0.561993,-1.788158 0.561993,-2.741843 0,-0.953685 -0.187331,-1.864794 -0.561993,-2.733328 C 77.970317,11.007797 77.470768,10.255636 76.840655,9.6255229 76.210542,8.99541 75.458381,8.495861 74.58417,8.1268759 73.715636,7.7522142 72.804527,7.5648833 71.850842,7.5648833 c -0.953684,0 -1.867632,0.1873309 -2.741843,0.5619926 -0.868534,0.3689851 -1.617857,0.8685341 -2.24797,1.498647 -0.630113,0.6301131 -1.1325,1.3822741 -1.507162,2.2564851 z M 64.791874,17.5956 c -0.403045,-0.948008 -0.604567,-1.941429 -0.604567,-2.980264 0,-1.038835 0.201522,-2.029418 0.604567,-2.971749 0.408722,-0.948007 0.953685,-1.7626127 1.634888,-2.4438161 0.68688,-0.6868799 1.501485,-1.2318424 2.443816,-1.6348876 0.948008,-0.4087219 1.941429,-0.6130828 2.980264,-0.6130828 1.038835,0 2.029418,0.2043609 2.971749,0.6130828 0.948008,0.4030452 1.762613,0.9480077 2.443816,1.6348876 0.68688,0.6812034 1.231843,1.4958091 1.634888,2.4438161 0.408722,0.942331 0.613083,1.932914 0.613083,2.971749 0,1.038835 -0.204361,2.032256 -0.613083,2.980264 -0.403045,0.942331 -0.948008,1.756936 -1.634888,2.443816 -0.681203,0.681203 -1.495808,1.223328 -2.443816,1.626373 -0.942331,0.408721 -1.932914,0.613082 -2.971749,0.613082 -1.038835,0 -2.032256,-0.204361 -2.980264,-0.613082 -0.942331,-0.403045 -1.756936,-0.94517 -2.443816,-1.626373 -0.681203,-0.68688 -1.226166,-1.501485 -1.634888,-2.443816 z"
           id="path53" />
        <path
           style="color:#000000;font-style:normal;font-variant:normal;font-weight:normal;font-stretch:normal;font-size:17.43880000000000052px;line-height:1.25;font-family:Monoton;-inkscape-font-specification:Monoton;font-variant-ligatures:normal;font-variant-position:normal;font-variant-caps:normal;font-variant-numeric:normal;font-variant-alternates:normal;font-variant-east-asian:normal;font-feature-settings:normal;font-variation-settings:normal;text-indent:0;text-align:start;text-decoration:none;text-decoration-line:none;text-decoration-style:solid;text-decoration-color:#000000;letter-spacing:1.85207999999999995px;word-spacing:normal;text-transform:none;writing-mode:lr-tb;direction:ltr;text-orientation:mixed;dominant-baseline:auto;baseline-shift:baseline;text-anchor:start;white-space:normal;shape-padding:0;shape-margin:0;inline-size:0;clip-rule:nonzero;display:inline;overflow:visible;visibility:visible;isolation:auto;mix-blend-mode:normal;color-interpolation:sRGB;color-interpolation-filters:linearRGB;solid-color:#000000;solid-opacity:1;vector-effect:none;fill-opacity:1;fill-rule:nonzero;stroke-width:0.242208;stroke-linecap:butt;stroke-linejoin:miter;stroke-miterlimit:4;stroke-dasharray:none;stroke-dashoffset:0;stroke-opacity:1.0;color-rendering:auto;image-rendering:auto;shape-rendering:auto;text-rendering:auto;enable-background:accumulate;stop-color:#000000;stop-opacity:1;stroke:none;"
           d="M 71.851562 6.8300781 C 70.796845 6.8300781 69.785042 7.038036 68.822266 7.453125 C 67.866847 7.8617683 67.039882 8.4151959 66.341797 9.1132812 C 65.649295 9.8057835 65.095872 10.634918 64.681641 11.595703 L 64.679688 11.595703 C 64.270315 12.552829 64.066406 13.560738 64.066406 14.615234 C 64.066406 15.669731 64.270411 16.679912 64.679688 17.642578 L 64.681641 17.644531 C 65.095862 18.59954 65.64767 19.427058 66.339844 20.125 L 66.341797 20.125 C 67.039858 20.817292 67.867036 21.368781 68.822266 21.777344 C 69.785042 22.192432 70.796845 22.400391 71.851562 22.400391 C 72.905625 22.400391 73.912436 22.192015 74.869141 21.777344 C 75.830145 21.368773 76.658942 20.817621 77.351562 20.125 C 78.049648 19.426915 78.603075 18.597997 79.011719 17.642578 C 79.426808 16.679802 79.634766 15.669952 79.634766 14.615234 C 79.634766 13.560517 79.426905 12.552939 79.011719 11.595703 L 79.013672 11.595703 C 78.605243 10.635033 78.049441 9.8076485 77.351562 9.1152344 C 76.659297 8.4171991 75.83162 7.8617115 74.871094 7.453125 L 74.869141 7.453125 C 73.912436 7.0384533 72.905625 6.8300781 71.851562 6.8300781 z M 71.851562 7.0722656 C 72.874515 7.0722656 73.84601 7.2735239 74.773438 7.6757812 L 74.775391 7.6757812 C 75.710214 8.073221 76.509924 8.6098112 77.179688 9.2851562 L 77.181641 9.2851562 C 77.856986 9.9549202 78.391623 10.756584 78.789062 11.691406 L 78.791016 11.691406 C 79.193273 12.618833 79.392578 13.592282 79.392578 14.615234 C 79.392578 15.638187 79.193371 16.613635 78.791016 17.546875 L 78.789062 17.546875 L 78.789062 17.548828 C 78.391615 18.47807 77.857315 19.27745 77.181641 19.953125 C 76.511856 20.622911 75.710402 21.157168 74.775391 21.554688 L 74.773438 21.554688 C 73.84601 21.956944 72.874515 22.158203 71.851562 22.158203 C 70.82861 22.158203 69.851209 21.957042 68.917969 21.554688 C 67.989408 21.157532 67.188972 20.624309 66.513672 19.955078 L 66.511719 19.953125 C 65.842989 19.278337 65.307014 18.476502 64.904297 17.548828 C 64.507484 16.615478 64.308594 15.638407 64.308594 14.615234 C 64.308594 13.592062 64.505627 12.618944 64.902344 11.691406 C 65.305557 10.756176 65.841814 9.9550608 66.511719 9.2851562 C 67.187393 8.6094819 67.988727 8.0732284 68.917969 7.6757812 C 69.851209 7.2734265 70.82861 7.0722656 71.851562 7.0722656 z M 71.851562 7.4433594 C 70.88202 7.4433594 69.949414 7.6346823 69.060547 8.015625 C 68.179541 8.3901263 67.416439 8.898014 66.775391 9.5390625 C 66.133963 10.18049 65.622383 10.946863 65.242188 11.833984 C 64.866965 12.7172 64.679688 13.645931 64.679688 14.615234 C 64.679688 15.584538 64.867068 16.515551 65.242188 17.404297 C 65.622411 18.285723 66.134092 19.050107 66.775391 19.691406 C 67.41669 20.332705 68.179121 20.842433 69.060547 21.222656 L 69.060547 21.224609 L 69.0625 21.224609 C 69.951246 21.59973 70.88226 21.787109 71.851562 21.787109 C 72.820866 21.787109 73.747643 21.599832 74.630859 21.224609 L 74.632812 21.222656 C 75.519934 20.842461 76.284354 20.332834 76.925781 19.691406 C 77.56721 19.049979 78.076608 18.285964 78.451172 17.404297 C 78.832115 16.515431 79.021484 15.584778 79.021484 14.615234 C 79.021484 13.645691 78.832219 12.717321 78.451172 11.833984 C 78.076637 10.946624 77.567338 10.180619 76.925781 9.5390625 C 76.284604 8.897885 75.519505 8.3900971 74.632812 8.015625 L 74.630859 8.015625 C 73.748057 7.6350907 72.820453 7.4433594 71.851562 7.4433594 z M 71.851562 7.6855469 C 72.789388 7.6855469 73.683378 7.8700049 74.537109 8.2382812 C 75.398171 8.6017162 76.13719 9.0922681 76.755859 9.7109375 C 77.374529 10.329607 77.865081 11.068626 78.228516 11.929688 C 78.596792 12.783419 78.779297 13.677409 78.779297 14.615234 C 78.779297 15.55306 78.596897 16.449039 78.228516 17.308594 L 78.228516 17.310547 C 77.86511 18.165948 77.374658 18.900734 76.755859 19.519531 C 76.137062 20.138329 75.398409 20.632824 74.537109 21.001953 L 74.537109 21 C 73.683257 21.362748 72.789629 21.544922 71.851562 21.544922 C 70.913497 21.544922 70.015926 21.36285 69.15625 21 L 69.15625 21.001953 C 68.300608 20.632852 67.566192 20.138458 66.947266 19.519531 C 66.328716 18.900982 65.833871 18.165521 65.464844 17.310547 L 65.464844 17.308594 C 65.1025 16.449465 64.921875 15.552647 64.921875 14.615234 C 64.921875 13.677168 65.102097 12.783539 65.464844 11.929688 C 65.833973 11.068388 66.328468 10.329735 66.947266 9.7109375 C 67.566063 9.0921395 68.300849 8.6016869 69.15625 8.2382812 C 70.015806 7.8699004 70.913737 7.6855469 71.851562 7.6855469 z M 71.851562 8.0566406 C 70.667755 8.0566406 69.568145 8.35189 68.5625 8.9414062 C 67.557527 9.5247525 66.758968 10.321328 66.169922 11.326172 L 66.167969 11.326172 L 66.167969 11.328125 C 65.584257 12.333728 65.292969 13.431624 65.292969 14.615234 C 65.292969 15.798845 65.584257 16.898694 66.167969 17.904297 L 66.169922 17.904297 C 66.758917 18.909054 67.557743 19.70788 68.5625 20.296875 C 69.568103 20.880587 70.667952 21.173828 71.851562 21.173828 C 73.035173 21.173828 74.133069 20.880587 75.138672 20.296875 C 76.143106 19.708069 76.940155 18.908692 77.523438 17.904297 C 78.112954 16.898652 78.410156 15.799042 78.410156 14.615234 C 78.410156 13.431427 78.112954 12.331817 77.523438 11.326172 C 76.940169 10.322275 76.142909 9.5243257 75.138672 8.9414062 C 74.133027 8.35189 73.03537 8.0566406 71.851562 8.0566406 z M 71.851562 8.2988281 C 72.995199 8.2988281 74.047734 8.5818614 75.017578 9.1503906 C 75.988008 9.7136858 76.751158 10.47879 77.314453 11.449219 C 77.882982 12.419063 78.167969 13.471598 78.167969 14.615234 C 78.167969 15.758871 77.882982 16.811406 77.314453 17.78125 C 76.751107 18.751766 75.988223 19.518892 75.017578 20.087891 C 74.047692 20.65087 72.995396 20.931641 71.851562 20.931641 C 70.708388 20.931641 69.65497 20.650221 68.685547 20.087891 L 68.683594 20.087891 C 67.713444 19.518914 66.947715 18.751572 66.378906 17.78125 C 65.815926 16.811364 65.535156 15.759068 65.535156 14.615234 C 65.535156 13.471401 65.815926 12.419105 66.378906 11.449219 C 66.947905 10.478574 67.713077 9.7137364 68.683594 9.1503906 L 68.685547 9.1503906 C 69.655391 8.5818614 70.707926 8.2988281 71.851562 8.2988281 z M 71.851562 8.6699219 C 71.04682 8.6699219 70.274644 8.8259051 69.539062 9.1386719 C 68.805022 9.4507835 68.168346 9.8746226 67.634766 10.408203 C 67.106737 10.936231 66.687051 11.568836 66.375 12.302734 C 66.062233 13.038316 65.90625 13.810491 65.90625 14.615234 C 65.90625 15.419977 66.062233 16.192153 66.375 16.927734 C 66.687006 17.661527 67.107016 18.296529 67.634766 18.830078 L 67.636719 18.832031 C 68.170268 19.359781 68.80527 19.779791 69.539062 20.091797 C 70.274644 20.404564 71.04682 20.560547 71.851562 20.560547 C 72.656306 20.560547 73.428481 20.404564 74.164062 20.091797 C 74.89796 19.779746 75.530566 19.358107 76.058594 18.830078 C 76.592174 18.296497 77.01406 17.661775 77.326172 16.927734 C 77.638939 16.192153 77.796875 15.419977 77.796875 14.615234 C 77.796875 13.810491 77.638939 13.038316 77.326172 12.302734 C 77.014016 11.568589 76.5905 10.936259 76.056641 10.408203 C 75.528811 9.8748807 74.897686 9.4506062 74.164062 9.1386719 C 73.428481 8.8259051 72.656306 8.6699219 71.851562 8.6699219 z M 71.851562 8.9121094 C 72.624941 8.9121094 73.362061 9.0629653 74.068359 9.3632812 C 74.776094 9.6642077 75.381617 10.069426 75.886719 10.580078 C 76.397371 11.085179 76.802589 11.690703 77.103516 12.398438 C 77.403832 13.104736 77.554688 13.841856 77.554688 14.615234 C 77.554688 15.388612 77.403832 16.125732 77.103516 16.832031 C 76.802544 17.539871 76.39765 18.149225 75.886719 18.660156 C 75.381589 19.165286 74.776341 19.568109 74.068359 19.869141 C 73.362061 20.169457 72.624941 20.318359 71.851562 20.318359 C 71.078185 20.318359 70.339111 20.169457 69.632812 19.869141 C 68.924725 19.568064 68.317603 19.163612 67.806641 18.658203 C 67.30176 18.147476 66.898509 17.539592 66.597656 16.832031 C 66.29734 16.125732 66.148437 15.388612 66.148438 14.615234 C 66.148438 13.841856 66.29734 13.104736 66.597656 12.398438 C 66.898688 11.690455 67.30151 11.085208 67.806641 10.580078 C 68.317572 10.069147 68.924973 9.6642525 69.632812 9.3632812 C 70.339111 9.0629653 71.078185 8.9121094 71.851562 8.9121094 z M 71.851562 9.2832031 C 70.889291 9.2832031 69.994049 9.522175 69.175781 9.9980469 C 68.358111 10.473572 67.707947 11.121782 67.232422 11.939453 C 66.75655 12.75772 66.517578 13.652962 66.517578 14.615234 C 66.517578 15.577507 66.75655 16.472748 67.232422 17.291016 C 67.707947 18.108687 68.358111 18.756897 69.175781 19.232422 C 69.994049 19.708294 70.889291 19.947266 71.851562 19.947266 C 72.813835 19.947266 73.707123 19.708294 74.525391 19.232422 C 75.343062 18.756897 75.993225 18.108687 76.46875 17.291016 C 76.944622 16.472748 77.183594 15.577507 77.183594 14.615234 C 77.183594 13.652962 76.944622 12.75772 76.46875 11.939453 C 75.993225 11.121782 75.343062 10.473572 74.525391 9.9980469 C 73.707123 9.5221749 72.813835 9.2832031 71.851562 9.2832031 z M 71.851562 9.5253906 C 72.773953 9.5253906 73.621737 9.7519256 74.404297 10.207031 C 75.187454 10.662484 75.804313 11.279343 76.259766 12.0625 C 76.714871 12.845059 76.941406 13.692844 76.941406 14.615234 C 76.941406 15.537625 76.714871 16.385409 76.259766 17.167969 C 75.804313 17.951126 75.187454 18.567985 74.404297 19.023438 C 73.621737 19.478543 72.773953 19.705078 71.851562 19.705078 C 70.929173 19.705078 70.079435 19.478543 69.296875 19.023438 C 68.513719 18.567985 67.898813 17.951126 67.443359 17.167969 C 66.988254 16.385409 66.759766 15.537625 66.759766 14.615234 C 66.759766 13.692844 66.988254 12.845059 67.443359 12.0625 C 67.898813 11.279343 68.513719 10.662484 69.296875 10.207031 C 70.079435 9.7519256 70.929173 9.5253906 71.851562 9.5253906 z M 71.851562 9.8964844 C 70.997042 9.8964844 70.204361 10.110143 69.482422 10.535156 L 69.482422 10.533203 C 68.761329 10.951902 68.186127 11.525181 67.761719 12.246094 C 67.342562 12.967975 67.130859 13.760988 67.130859 14.615234 C 67.130859 15.46948 67.342562 16.262494 67.761719 16.984375 C 68.186055 17.705165 68.761631 18.280742 69.482422 18.705078 C 70.204302 19.124235 70.997316 19.333984 71.851562 19.333984 C 72.705809 19.333984 73.496869 19.124235 74.21875 18.705078 L 74.220703 18.705078 C 74.941616 18.28067 75.512941 17.705468 75.931641 16.984375 C 76.356653 16.262435 76.570312 15.469755 76.570312 14.615234 C 76.570312 13.760714 76.356653 12.968033 75.931641 12.246094 C 75.513348 11.525701 74.940758 10.953799 74.220703 10.535156 C 73.498764 10.110143 72.706083 9.8964844 71.851562 9.8964844 z M 71.851562 10.138672 C 72.66599 10.138672 73.411776 10.340356 74.097656 10.744141 C 74.784261 11.142814 75.323983 11.682536 75.722656 12.369141 C 76.126441 13.055021 76.328125 13.800807 76.328125 14.615234 C 76.328125 15.429662 76.126441 16.175448 75.722656 16.861328 C 75.323912 17.548055 74.784563 18.091706 74.097656 18.496094 C 73.411717 18.894381 72.666264 19.091797 71.851562 19.091797 C 71.037522 19.091797 70.290948 18.893733 69.605469 18.496094 L 69.603516 18.496094 C 68.917068 18.09171 68.374923 17.547947 67.970703 16.861328 C 67.572416 16.175389 67.373047 15.429936 67.373047 14.615234 C 67.373047 13.800532 67.572416 13.05508 67.970703 12.369141 C 68.375092 11.682234 68.916789 11.142885 69.603516 10.744141 L 69.605469 10.744141 C 70.291348 10.340356 71.037135 10.138672 71.851562 10.138672 z M 71.851562 10.509766 C 71.296554 10.509766 70.762387 10.617734 70.253906 10.833984 C 69.752651 11.049641 69.315998 11.342205 68.947266 11.710938 C 68.578307 12.079896 68.285918 12.520379 68.070312 13.027344 C 67.854387 13.529883 67.744141 14.06088 67.744141 14.615234 C 67.744141 15.170243 67.854062 15.70441 68.070312 16.212891 C 68.285969 16.714147 68.578534 17.150799 68.947266 17.519531 C 69.315998 17.888264 69.752651 18.180828 70.253906 18.396484 C 70.762387 18.612735 71.296554 18.720703 71.851562 18.720703 C 72.406571 18.720703 72.936387 18.61292 73.439453 18.396484 C 73.946418 18.180879 74.386901 17.88849 74.755859 17.519531 C 75.124592 17.150799 75.417156 16.714147 75.632812 16.212891 C 75.849064 15.70441 75.957031 15.170243 75.957031 14.615234 C 75.957031 14.060881 75.848739 13.529882 75.632812 13.027344 L 75.632812 13.025391 C 75.41727 12.519085 75.124439 12.079517 74.755859 11.710938 C 74.386901 11.341978 73.946418 11.04959 73.439453 10.833984 C 72.936387 10.617549 72.406571 10.509766 71.851562 10.509766 z M 71.851562 10.751953 C 72.375126 10.751953 72.870425 10.853001 73.34375 11.056641 C 73.824531 11.26111 74.23768 11.536508 74.583984 11.882812 C 74.930289 12.229117 75.205687 12.640313 75.410156 13.121094 C 75.613796 13.594418 75.714844 14.091671 75.714844 14.615234 C 75.714844 15.138798 75.613981 15.637925 75.410156 16.117188 C 75.205738 16.592323 74.930516 17.001126 74.583984 17.347656 C 74.23768 17.693961 73.824531 17.969359 73.34375 18.173828 C 72.870425 18.377468 72.375126 18.478516 71.851562 18.478516 C 71.328652 18.478516 70.828325 18.377143 70.349609 18.173828 L 70.347656 18.173828 C 69.873184 17.969479 69.46334 17.693809 69.117188 17.347656 C 68.770657 17.001126 68.497388 16.592323 68.292969 16.117188 C 68.089144 15.637925 67.986328 15.138798 67.986328 14.615234 C 67.986328 14.091671 68.089329 13.594418 68.292969 13.121094 C 68.497439 12.640313 68.770883 12.229117 69.117188 11.882812 C 69.46334 11.53666 69.873184 11.26099 70.347656 11.056641 C 70.826919 10.852816 71.327999 10.751953 71.851562 10.751953 z M 71.851562 11.123047 C 70.892032 11.123047 70.059534 11.465857 69.380859 12.144531 C 68.702185 12.823206 68.357422 13.655704 68.357422 14.615234 C 68.357422 15.574765 68.702185 16.407263 69.380859 17.085938 C 70.059534 17.764612 70.892032 18.107422 71.851562 18.107422 C 72.811093 18.107422 73.641638 17.764612 74.320312 17.085938 C 74.998987 16.407263 75.34375 15.574765 75.34375 14.615234 C 75.34375 13.655704 74.998987 12.823206 74.320312 12.144531 C 73.641638 11.465857 72.811093 11.123047 71.851562 11.123047 z M 71.851562 11.365234 C 72.753988 11.365234 73.512073 11.678088 74.150391 12.316406 C 74.788709 12.954725 75.101562 13.71281 75.101562 14.615234 C 75.101562 15.517659 74.788709 16.275744 74.150391 16.914062 C 73.512073 17.552381 72.753988 17.865234 71.851562 17.865234 C 70.949138 17.865234 70.191053 17.552381 69.552734 16.914062 C 68.914416 16.275744 68.599609 15.517659 68.599609 14.615234 C 68.599609 13.71281 68.914416 12.954725 69.552734 12.316406 C 70.191053 11.678088 70.949138 11.365234 71.851562 11.365234 z "
           id="path55" />
      </g>
      <g
         id="g57"
         style="opacity:1">
        <path
           style="color:#000000;font-style:normal;font-variant:normal;font-weight:normal;font-stretch:normal;font-size:17.43880000000000052px;line-height:1.25;font-family:Monoton;-inkscape-font-specification:Monoton;font-variant-ligatures:normal;font-variant-position:normal;font-variant-caps:normal;font-variant-numeric:normal;font-variant-alternates:normal;font-variant-east-asian:normal;font-feature-settings:normal;font-variation-settings:normal;text-indent:0;text-align:start;text-decoration:none;text-decoration-line:none;text-decoration-style:solid;text-decoration-color:#000000;letter-spacing:1.85207999999999995px;word-spacing:normal;text-transform:none;writing-mode:lr-tb;direction:ltr;text-orientation:mixed;dominant-baseline:auto;baseline-shift:baseline;text-anchor:start;white-space:normal;shape-padding:0;shape-margin:0;inline-size:0;clip-rule:nonzero;display:inline;overflow:visible;visibility:visible;isolation:auto;mix-blend-mode:normal;color-interpolation:sRGB;color-interpolation-filters:linearRGB;solid-color:#000000;solid-opacity:1;vector-effect:none;fill:#37c871;fill-opacity:1;fill-rule:nonzero;stroke-width:0.242208;stroke-linecap:butt;stroke-linejoin:miter;stroke-miterlimit:4;stroke-dasharray:none;stroke-dashoffset:0;stroke-opacity:1.0;color-rendering:auto;image-rendering:auto;shape-rendering:auto;text-rendering:auto;enable-background:accumulate;stop-color:#000000;stop-opacity:1;stroke:none;"
           d="M 85.785761,17.331634 85.496249,18.540769 82.584106,7.5648833 h 0.630113 z m 0.638627,-2.358666 -0.315056,1.175075 -2.256485,-8.5831597 h 0.621597 z m 0.638628,-2.443817 -0.323571,1.192106 -1.626373,-6.1563737 H 85.7517 Z m 2.426787,9.136638 h -0.638628 l 3.729587,-14.0838756 -0.0085,-0.01703 h 0.647143 v 0.01703 L 94.879838,13.30402 96.40403,7.5648833 h 0.638628 L 93.30454,21.665789 h -0.638628 l -1.668947,-5.713592 z m -1.277256,0 H 87.582434 L 91.312021,7.5648833 h 0.630113 z m -1.268741,0 H 86.313693 L 90.051795,7.5648833 h 0.621598 z m 10.175472,0 H 96.48065 l 3.72959,-14.1009057 h 0.63863 z m -1.277256,0 H 95.211909 L 98.941496,7.5648833 h 0.630113 z m -1.268741,0 H 93.943168 L 97.681271,7.5648833 h 0.621598 z m -9.213272,-1.209136 3.41453,-12.8917697 h 0.638628 L 85.675065,21.665789 H 85.036437 L 81.30685,7.5648833 h 0.638628 z m 5.960527,-5.705076 1.651918,5.756166 0.323571,-1.21765 -1.660432,-5.739137 z m 0.630113,-2.401242 1.660433,5.739137 0.323571,-1.20062 -1.660432,-5.747652 z m 0.630113,-2.3842106 1.668948,5.7391366 0.315056,-1.209136 -1.651917,-5.7561662 z"
           id="path59" />
        <path
           style="color:#000000;font-style:normal;font-variant:normal;font-weight:normal;font-stretch:normal;font-size:17.43880000000000052px;line-height:1.25;font-family:Monoton;-inkscape-font-specification:Monoton;font-variant-ligatures:normal;font-variant-position:normal;font-variant-caps:normal;font-variant-numeric:normal;font-variant-alternates:normal;font-variant-east-asian:normal;font-feature-settings:normal;font-variation-settings:normal;text-indent:0;text-align:start;text-decoration:none;text-decoration-line:none;text-decoration-style:solid;text-decoration-color:#000000;letter-spacing:1.85207999999999995px;word-spacing:normal;text-transform:none;writing-mode:lr-tb;direction:ltr;text-orientation:mixed;dominant-baseline:auto;baseline-shift:baseline;text-anchor:start;white-space:normal;shape-padding:0;shape-margin:0;inline-size:0;clip-rule:nonzero;display:inline;overflow:visible;visibility:visible;isolation:auto;mix-blend-mode:normal;color-interpolation:sRGB;color-interpolation-filters:linearRGB;solid-color:#000000;solid-opacity:1;vector-effect:none;fill-opacity:1;fill-rule:nonzero;stroke-width:0.242208;stroke-linecap:butt;stroke-linejoin:miter;stroke-miterlimit:4;stroke-dasharray:none;stroke-dashoffset:0;stroke-opacity:1.0;color-rendering:auto;image-rendering:auto;shape-rendering:auto;text-rendering:auto;enable-background:accumulate;stop-color:#000000;stop-opacity:1;stroke:none;"
           d="M 81.150391 7.4433594 L 84.943359 21.787109 L 85.767578 21.787109 L 89.570312 7.4433594 L 88.681641 7.4433594 L 85.359375 19.982422 L 82.039062 7.4433594 L 81.150391 7.4433594 z M 82.425781 7.4433594 L 85.378906 18.572266 L 85.613281 18.568359 L 85.910156 17.330078 L 85.902344 17.300781 L 83.306641 7.4433594 L 82.425781 7.4433594 z M 83.695312 7.4433594 L 86.107422 16.619141 L 86.548828 14.972656 L 86.541016 14.941406 L 84.568359 7.4433594 L 83.695312 7.4433594 z M 84.955078 7.4433594 L 86.738281 14.189453 L 87.1875 12.529297 L 87.179688 12.498047 L 85.845703 7.4433594 L 84.955078 7.4433594 z M 89.958984 7.4433594 L 86.15625 21.787109 L 87.037109 21.787109 L 87.060547 21.697266 L 90.830078 7.4433594 L 89.958984 7.4433594 z M 91.21875 7.4433594 L 87.425781 21.787109 L 88.306641 21.787109 L 88.330078 21.697266 L 92.099609 7.4433594 L 91.21875 7.4433594 z M 92.376953 7.4433594 L 92.451172 7.5957031 L 88.693359 21.787109 L 89.583984 21.787109 L 89.607422 21.697266 L 91.001953 16.402344 L 92.574219 21.787109 L 93.398438 21.787109 L 97.199219 7.4433594 L 96.310547 7.4433594 L 94.875 12.853516 L 93.339844 7.5644531 L 93.339844 7.4433594 L 92.376953 7.4433594 z M 97.587891 7.4433594 L 93.785156 21.787109 L 94.666016 21.787109 L 94.689453 21.697266 L 98.460938 7.4433594 L 97.587891 7.4433594 z M 98.847656 7.4433594 L 95.054688 21.787109 L 95.935547 21.787109 L 95.958984 21.697266 L 99.728516 7.4433594 L 98.847656 7.4433594 z M 100.11719 7.4433594 L 96.324219 21.787109 L 97.212891 21.787109 L 97.236328 21.697266 L 101.00586 7.4433594 L 100.11719 7.4433594 z M 81.464844 7.6855469 L 81.851562 7.6855469 L 85.359375 20.929688 L 85.476562 20.488281 L 88.867188 7.6855469 L 89.255859 7.6855469 L 85.582031 21.544922 L 85.128906 21.544922 L 81.464844 7.6855469 z M 82.742188 7.6855469 L 83.121094 7.6855469 L 85.660156 17.333984 L 85.490234 18.046875 L 82.742188 7.6855469 z M 84.009766 7.6855469 L 84.380859 7.6855469 L 86.298828 14.972656 L 86.111328 15.675781 L 84.009766 7.6855469 z M 85.271484 7.6855469 L 85.658203 7.6855469 L 86.9375 12.529297 L 86.742188 13.251953 L 85.271484 7.6855469 z M 90.144531 7.6855469 L 90.515625 7.6855469 L 86.849609 21.544922 L 86.472656 21.544922 L 90.144531 7.6855469 z M 91.404297 7.6855469 L 91.783203 7.6855469 L 88.119141 21.544922 L 87.740234 21.544922 L 91.404297 7.6855469 z M 92.677734 7.6855469 L 93.123047 7.6855469 L 94.884766 13.755859 L 96.498047 7.6855469 L 96.884766 7.6855469 L 93.210938 21.544922 L 92.755859 21.544922 L 90.990234 15.5 L 89.396484 21.544922 L 89.009766 21.544922 L 92.677734 7.6855469 z M 97.775391 7.6855469 L 98.144531 7.6855469 L 94.480469 21.544922 L 94.101562 21.544922 L 97.775391 7.6855469 z M 99.035156 7.6855469 L 99.414062 7.6855469 L 95.748047 21.544922 L 95.369141 21.544922 L 99.035156 7.6855469 z M 100.30273 7.6855469 L 100.69141 7.6855469 L 97.025391 21.544922 L 96.638672 21.544922 L 100.30273 7.6855469 z M 92.910156 8.2890625 L 92.455078 9.9667969 L 92.464844 10 L 94.255859 16.160156 L 94.689453 14.494141 L 92.910156 8.2890625 z M 92.916016 9.1894531 L 94.439453 14.498047 L 94.242188 15.251953 L 92.707031 9.9628906 L 92.916016 9.1894531 z M 92.269531 10.689453 L 91.824219 12.351562 L 91.833984 12.384766 L 93.615234 18.539062 L 94.060547 16.888672 L 92.269531 10.689453 z M 92.279297 11.591797 L 93.808594 16.890625 L 93.607422 17.640625 L 92.076172 12.351562 L 92.279297 11.591797 z M 91.630859 13.095703 L 91.195312 14.753906 L 91.205078 14.785156 L 92.976562 20.962891 L 93.421875 19.289062 L 91.630859 13.095703 z M 91.640625 14.005859 L 93.169922 19.291016 L 92.966797 20.054688 L 91.447266 14.75 L 91.640625 14.005859 z "
           id="path61" />
      </g>
      <g
         id="g63"
         style="opacity:1">
        <path
           style="color:#000000;font-style:normal;font-variant:normal;font-weight:normal;font-stretch:normal;font-size:17.43880000000000052px;line-height:1.25;font-family:Monoton;-inkscape-font-specification:Monoton;font-variant-ligatures:normal;font-variant-position:normal;font-variant-caps:normal;font-variant-numeric:normal;font-variant-alternates:normal;font-variant-east-asian:normal;font-feature-settings:normal;font-variation-settings:normal;text-indent:0;text-align:start;text-decoration:none;text-decoration-line:none;text-decoration-style:solid;text-decoration-color:#000000;letter-spacing:1.85207999999999995px;word-spacing:normal;text-transform:none;writing-mode:lr-tb;direction:ltr;text-orientation:mixed;dominant-baseline:auto;baseline-shift:baseline;text-anchor:start;white-space:normal;shape-padding:0;shape-margin:0;inline-size:0;clip-rule:nonzero;display:inline;overflow:visible;visibility:visible;isolation:auto;mix-blend-mode:normal;color-interpolation:sRGB;color-interpolation-filters:linearRGB;solid-color:#000000;solid-opacity:1;vector-effect:none;fill:#37c871;fill-opacity:1;fill-rule:nonzero;stroke-width:0.242208;stroke-linecap:butt;stroke-linejoin:miter;stroke-miterlimit:4;stroke-dasharray:none;stroke-dashoffset:0;stroke-opacity:1.0;color-rendering:auto;image-rendering:auto;shape-rendering:auto;text-rendering:auto;enable-background:accumulate;stop-color:#000000;stop-opacity:1;stroke:none;"
           d="m 108.15909,21.665789 h -0.61308 V 7.5648833 h 6.78648 v 0.6130828 h -6.1734 V 8.791049 h 6.1734 v 0.6130828 h -6.1734 v 0.6130832 h 6.1734 v 0.613083 h -6.1734 v 3.065414 h 5.88389 v 0.613083 h -5.88389 v 0.613082 h 5.88389 v 0.613083 h -5.88389 v 0.613083 h 5.88389 v 0.613083 h -5.88389 z m -1.22617,0 h -0.61308 V 7.5648833 h 0.61308 z m -1.22616,0 h -0.61308 V 7.5648833 h 0.61308 z m -1.22617,0 h -0.61308 V 7.5648833 h 0.61308 z"
           id="path65" />
        <path
           style="color:#000000;font-style:normal;font-variant:normal;font-weight:normal;font-stretch:normal;font-size:17.43880000000000052px;line-height:1.25;font-family:Monoton;-inkscape-font-specification:Monoton;font-variant-ligatures:normal;font-variant-position:normal;font-variant-caps:normal;font-variant-numeric:normal;font-variant-alternates:normal;font-variant-east-asian:normal;font-feature-settings:normal;font-variation-settings:normal;text-indent:0;text-align:start;text-decoration:none;text-decoration-line:none;text-decoration-style:solid;text-decoration-color:#000000;letter-spacing:1.85207999999999995px;word-spacing:normal;text-transform:none;writing-mode:lr-tb;direction:ltr;text-orientation:mixed;dominant-baseline:auto;baseline-shift:baseline;text-anchor:start;white-space:normal;shape-padding:0;shape-margin:0;inline-size:0;clip-rule:nonzero;display:inline;overflow:visible;visibility:visible;isolation:auto;mix-blend-mode:normal;color-interpolation:sRGB;color-interpolation-filters:linearRGB;solid-color:#000000;solid-opacity:1;vector-effect:none;fill-opacity:1;fill-rule:nonzero;stroke-width:0.242208;stroke-linecap:butt;stroke-linejoin:miter;stroke-miterlimit:4;stroke-dasharray:none;stroke-dashoffset:0;stroke-opacity:1.0;color-rendering:auto;image-rendering:auto;shape-rendering:auto;text-rendering:auto;enable-background:accumulate;stop-color:#000000;stop-opacity:1;stroke:none;"
           d="M 103.74609 7.4433594 L 103.74609 21.787109 L 104.60156 21.787109 L 104.60156 21.666016 L 104.60156 7.4433594 L 103.74609 7.4433594 z M 104.97266 7.4433594 L 104.97266 21.787109 L 105.82812 21.787109 L 105.82812 21.666016 L 105.82812 7.4433594 L 104.97266 7.4433594 z M 106.19922 7.4433594 L 106.19922 21.787109 L 107.05469 21.787109 L 107.05469 21.666016 L 107.05469 7.4433594 L 106.19922 7.4433594 z M 107.42578 7.4433594 L 107.42578 21.787109 L 108.2793 21.787109 L 108.2793 21.666016 L 108.2793 16.882812 L 114.16406 16.882812 L 114.16406 16.027344 L 108.2793 16.027344 L 108.2793 15.65625 L 114.16406 15.65625 L 114.16406 14.800781 L 108.2793 14.800781 L 108.2793 14.429688 L 114.16406 14.429688 L 114.16406 13.574219 L 108.2793 13.574219 L 108.2793 10.751953 L 114.45312 10.751953 L 114.45312 9.8964844 L 108.2793 9.8964844 L 108.2793 9.5253906 L 114.45312 9.5253906 L 114.45312 8.6699219 L 108.2793 8.6699219 L 108.2793 8.2988281 L 114.45312 8.2988281 L 114.45312 7.4433594 L 107.42578 7.4433594 z M 103.98828 7.6855469 L 104.35938 7.6855469 L 104.35938 21.544922 L 103.98828 21.544922 L 103.98828 7.6855469 z M 105.21484 7.6855469 L 105.58594 7.6855469 L 105.58594 21.544922 L 105.21484 21.544922 L 105.21484 7.6855469 z M 106.44141 7.6855469 L 106.8125 7.6855469 L 106.8125 21.544922 L 106.44141 21.544922 L 106.44141 7.6855469 z M 107.66797 7.6855469 L 114.21094 7.6855469 L 114.21094 8.0566406 L 108.03711 8.0566406 L 108.03711 8.9121094 L 114.21094 8.9121094 L 114.21094 9.2832031 L 108.03711 9.2832031 L 108.03711 10.138672 L 114.21094 10.138672 L 114.21094 10.509766 L 108.03711 10.509766 L 108.03711 13.816406 L 113.92188 13.816406 L 113.92188 14.1875 L 108.03711 14.1875 L 108.03711 15.042969 L 113.92188 15.042969 L 113.92188 15.414062 L 108.03711 15.414062 L 108.03711 16.269531 L 113.92188 16.269531 L 113.92188 16.640625 L 108.03711 16.640625 L 108.03711 21.544922 L 107.66797 21.544922 L 107.66797 7.6855469 z "
           id="path67" />
      </g>
      <g
         id="g69"
         style="opacity:1">
        <path
           style="color:#000000;font-style:normal;font-variant:normal;font-weight:normal;font-stretch:normal;font-size:17.43880000000000052px;line-height:1.25;font-family:Monoton;-inkscape-font-specification:Monoton;font-variant-ligatures:normal;font-variant-position:normal;font-variant-caps:normal;font-variant-numeric:normal;font-variant-alternates:normal;font-variant-east-asian:normal;font-feature-settings:normal;font-variation-settings:normal;text-indent:0;text-align:start;text-decoration:none;text-decoration-line:none;text-decoration-style:solid;text-decoration-color:#000000;letter-spacing:1.85207999999999995px;word-spacing:normal;text-transform:none;writing-mode:lr-tb;direction:ltr;text-orientation:mixed;dominant-baseline:auto;baseline-shift:baseline;text-anchor:start;white-space:normal;shape-padding:0;shape-margin:0;inline-size:0;clip-rule:nonzero;display:inline;overflow:visible;visibility:visible;isolation:auto;mix-blend-mode:normal;color-interpolation:sRGB;color-interpolation-filters:linearRGB;solid-color:#000000;solid-opacity:1;vector-effect:none;fill:#37c871;fill-opacity:1;fill-rule:nonzero;stroke-width:0.242208;stroke-linecap:butt;stroke-linejoin:miter;stroke-miterlimit:4;stroke-dasharray:none;stroke-dashoffset:0;stroke-opacity:1.0;color-rendering:auto;image-rendering:auto;shape-rendering:auto;text-rendering:auto;enable-background:accumulate;stop-color:#000000;stop-opacity:1;stroke:none;"
           d="m 117.64064,7.5648833 h 0.61308 V 21.665789 h -0.61308 z m 3.6785,0 h 0.61308 V 18.600374 h 4.90466 v 0.613083 h -4.90466 v 0.613083 h 4.90466 v 0.613083 h -4.90466 v 0.613083 h 4.90466 v 0.613083 h -5.51774 z m -1.22617,0 h 0.61309 V 21.665789 h -0.61309 z m -1.22616,0 h 0.61308 V 21.665789 h -0.61308 z"
           id="path71" />
        <path
           style="color:#000000;font-style:normal;font-variant:normal;font-weight:normal;font-stretch:normal;font-size:17.43880000000000052px;line-height:1.25;font-family:Monoton;-inkscape-font-specification:Monoton;font-variant-ligatures:normal;font-variant-position:normal;font-variant-caps:normal;font-variant-numeric:normal;font-variant-alternates:normal;font-variant-east-asian:normal;font-feature-settings:normal;font-variation-settings:normal;text-indent:0;text-align:start;text-decoration:none;text-decoration-line:none;text-decoration-style:solid;text-decoration-color:#000000;letter-spacing:1.85207999999999995px;word-spacing:normal;text-transform:none;writing-mode:lr-tb;direction:ltr;text-orientation:mixed;dominant-baseline:auto;baseline-shift:baseline;text-anchor:start;white-space:normal;shape-padding:0;shape-margin:0;inline-size:0;clip-rule:nonzero;display:inline;overflow:visible;visibility:visible;isolation:auto;mix-blend-mode:normal;color-interpolation:sRGB;color-interpolation-filters:linearRGB;solid-color:#000000;solid-opacity:1;vector-effect:none;fill-opacity:1;fill-rule:nonzero;stroke-width:0.242208;stroke-linecap:butt;stroke-linejoin:miter;stroke-miterlimit:4;stroke-dasharray:none;stroke-dashoffset:0;stroke-opacity:1.0;color-rendering:auto;image-rendering:auto;shape-rendering:auto;text-rendering:auto;enable-background:accumulate;stop-color:#000000;stop-opacity:1;stroke:none;"
           d="M 117.51953 7.4433594 L 117.51953 7.5644531 L 117.51953 21.787109 L 118.375 21.787109 L 118.375 7.4433594 L 117.51953 7.4433594 z M 118.74609 7.4433594 L 118.74609 7.5644531 L 118.74609 21.787109 L 119.60156 21.787109 L 119.60156 7.4433594 L 118.74609 7.4433594 z M 119.97266 7.4433594 L 119.97266 7.5644531 L 119.97266 21.787109 L 120.82812 21.787109 L 120.82812 7.4433594 L 119.97266 7.4433594 z M 121.19727 7.4433594 L 121.19727 7.5644531 L 121.19727 21.787109 L 126.95703 21.787109 L 126.95703 20.931641 L 122.05273 20.931641 L 122.05273 20.560547 L 126.95703 20.560547 L 126.95703 19.705078 L 122.05273 19.705078 L 122.05273 19.333984 L 126.95703 19.333984 L 126.95703 18.478516 L 122.05273 18.478516 L 122.05273 7.4433594 L 121.19727 7.4433594 z M 117.76172 7.6855469 L 118.13281 7.6855469 L 118.13281 21.544922 L 117.76172 21.544922 L 117.76172 7.6855469 z M 118.98828 7.6855469 L 119.35938 7.6855469 L 119.35938 21.544922 L 118.98828 21.544922 L 118.98828 7.6855469 z M 120.21484 7.6855469 L 120.58398 7.6855469 L 120.58398 21.544922 L 120.21484 21.544922 L 120.21484 7.6855469 z M 121.43945 7.6855469 L 121.81055 7.6855469 L 121.81055 18.720703 L 126.71484 18.720703 L 126.71484 19.091797 L 121.81055 19.091797 L 121.81055 19.947266 L 126.71484 19.947266 L 126.71484 20.318359 L 121.81055 20.318359 L 121.81055 21.173828 L 126.71484 21.173828 L 126.71484 21.544922 L 121.43945 21.544922 L 121.43945 7.6855469 z "
           id="path73" />
      </g>
      <g
         id="g75"
         style="opacity:1">
        <path
           style="color:#000000;font-style:normal;font-variant:normal;font-weight:normal;font-stretch:normal;font-size:17.43880000000000052px;line-height:1.25;font-family:Monoton;-inkscape-font-specification:Monoton;font-variant-ligatures:normal;font-variant-position:normal;font-variant-caps:normal;font-variant-numeric:normal;font-variant-alternates:normal;font-variant-east-asian:normal;font-feature-settings:normal;font-variation-settings:normal;text-indent:0;text-align:start;text-decoration:none;text-decoration-line:none;text-decoration-style:solid;text-decoration-color:#000000;letter-spacing:1.85207999999999995px;word-spacing:normal;text-transform:none;writing-mode:lr-tb;direction:ltr;text-orientation:mixed;dominant-baseline:auto;baseline-shift:baseline;text-anchor:start;white-space:normal;shape-padding:0;shape-margin:0;inline-size:0;clip-rule:nonzero;display:inline;overflow:visible;visibility:visible;isolation:auto;mix-blend-mode:normal;color-interpolation:sRGB;color-interpolation-filters:linearRGB;solid-color:#000000;solid-opacity:1;vector-effect:none;fill:#37c871;fill-opacity:1;fill-rule:nonzero;stroke-width:0.242208;stroke-linecap:butt;stroke-linejoin:miter;stroke-miterlimit:4;stroke-dasharray:none;stroke-dashoffset:0;stroke-opacity:1.0;color-rendering:auto;image-rendering:auto;shape-rendering:auto;text-rendering:auto;enable-background:accumulate;stop-color:#000000;stop-opacity:1;stroke:none;"
           d="m 133.72987,7.5648833 h 0.61308 V 21.665789 h -0.61308 z m -1.22617,0 h 0.61308 V 21.665789 h -0.61308 z m -1.22616,0 h 0.61308 V 21.665789 h -0.61308 z m -1.22617,0 h 0.61308 V 21.665789 h -0.61308 z"
           id="path77" />
        <path
           style="color:#000000;font-style:normal;font-variant:normal;font-weight:normal;font-stretch:normal;font-size:17.43880000000000052px;line-height:1.25;font-family:Monoton;-inkscape-font-specification:Monoton;font-variant-ligatures:normal;font-variant-position:normal;font-variant-caps:normal;font-variant-numeric:normal;font-variant-alternates:normal;font-variant-east-asian:normal;font-feature-settings:normal;font-variation-settings:normal;text-indent:0;text-align:start;text-decoration:none;text-decoration-line:none;text-decoration-style:solid;text-decoration-color:#000000;letter-spacing:1.85207999999999995px;word-spacing:normal;text-transform:none;writing-mode:lr-tb;direction:ltr;text-orientation:mixed;dominant-baseline:auto;baseline-shift:baseline;text-anchor:start;white-space:normal;shape-padding:0;shape-margin:0;inline-size:0;clip-rule:nonzero;display:inline;overflow:visible;visibility:visible;isolation:auto;mix-blend-mode:normal;color-interpolation:sRGB;color-interpolation-filters:linearRGB;solid-color:#000000;solid-opacity:1;vector-effect:none;fill-opacity:1;fill-rule:nonzero;stroke-width:0.242208;stroke-linecap:butt;stroke-linejoin:miter;stroke-miterlimit:4;stroke-dasharray:none;stroke-dashoffset:0;stroke-opacity:1.0;color-rendering:auto;image-rendering:auto;shape-rendering:auto;text-rendering:auto;enable-background:accumulate;stop-color:#000000;stop-opacity:1;stroke:none;"
           d="M 129.92969 7.4433594 L 129.92969 7.5644531 L 129.92969 21.787109 L 130.78516 21.787109 L 130.78516 7.4433594 L 129.92969 7.4433594 z M 131.15625 7.4433594 L 131.15625 7.5644531 L 131.15625 21.787109 L 132.01172 21.787109 L 132.01172 7.4433594 L 131.15625 7.4433594 z M 132.38281 7.4433594 L 132.38281 7.5644531 L 132.38281 21.787109 L 133.23828 21.787109 L 133.23828 7.4433594 L 132.38281 7.4433594 z M 133.60938 7.4433594 L 133.60938 7.5644531 L 133.60938 21.787109 L 134.46484 21.787109 L 134.46484 7.4433594 L 133.60938 7.4433594 z M 130.17188 7.6855469 L 130.54297 7.6855469 L 130.54297 21.544922 L 130.17188 21.544922 L 130.17188 7.6855469 z M 131.39844 7.6855469 L 131.76953 7.6855469 L 131.76953 21.544922 L 131.39844 21.544922 L 131.39844 7.6855469 z M 132.625 7.6855469 L 132.99609 7.6855469 L 132.99609 21.544922 L 132.625 21.544922 L 132.625 7.6855469 z M 133.85156 7.6855469 L 134.22266 7.6855469 L 134.22266 21.544922 L 133.85156 21.544922 L 133.85156 7.6855469 z "
           id="path79" />
      </g>
      <g
         id="g81"
         style="opacity:1">
        <path
           style="color:#000000;font-style:normal;font-variant:normal;font-weight:normal;font-stretch:normal;font-size:17.43880000000000052px;line-height:1.25;font-family:Monoton;-inkscape-font-specification:Monoton;font-variant-ligatures:normal;font-variant-position:normal;font-variant-caps:normal;font-variant-numeric:normal;font-variant-alternates:normal;font-variant-east-asian:normal;font-feature-settings:normal;font-variation-settings:normal;text-indent:0;text-align:start;text-decoration:none;text-decoration-line:none;text-decoration-style:solid;text-decoration-color:#000000;letter-spacing:1.85207999999999995px;word-spacing:normal;text-transform:none;writing-mode:lr-tb;direction:ltr;text-orientation:mixed;dominant-baseline:auto;baseline-shift:baseline;text-anchor:start;white-space:normal;shape-padding:0;shape-margin:0;inline-size:0;clip-rule:nonzero;display:inline;overflow:visible;visibility:visible;isolation:auto;mix-blend-mode:normal;color-interpolation:sRGB;color-interpolation-filters:linearRGB;solid-color:#000000;solid-opacity:1;vector-effect:none;fill:#37c871;fill-opacity:1;fill-rule:nonzero;stroke-width:0.242208;stroke-linecap:butt;stroke-linejoin:miter;stroke-miterlimit:4;stroke-dasharray:none;stroke-dashoffset:0;stroke-opacity:1.0;color-rendering:auto;image-rendering:auto;shape-rendering:auto;text-rendering:auto;enable-background:accumulate;stop-color:#000000;stop-opacity:1;stroke:none;"
           d="m 149.09532,14.30028 h 0.61308 v 7.365509 h -0.61308 z m 2.45233,0 h 0.61308 v 7.365509 h -0.61308 z m -1.22617,0 h 0.61309 v 7.365509 h -0.61309 z m -1.83925,0 v 7.365509 c -1.07857,0.408721 -2.19687,0.613082 -3.35492,0.613082 -1.00477,0 -1.96697,-0.184492 -2.8866,-0.553477 -0.91963,-0.368985 -1.72856,-0.879888 -2.42679,-1.532707 -0.69823,-0.658497 -1.25739,-1.470264 -1.67746,-2.435301 -0.4144,-0.970715 -0.6216,-2.018065 -0.6216,-3.14205 0,-1.038835 0.20152,-2.029418 0.60457,-2.971749 0.40872,-0.948007 0.95368,-1.7626127 1.63489,-2.4438161 0.68688,-0.6868799 1.50148,-1.2318424 2.44381,-1.6348876 0.94801,-0.4087219 1.94144,-0.6130828 2.98027,-0.6130828 1.29429,0 2.49775,0.3008647 3.61038,0.9025941 1.11263,0.6017295 2.0209,1.4191733 2.72481,2.4523314 l -0.5109,0.332087 c -0.64715,-0.948008 -1.48446,-1.6973316 -2.51194,-2.2479709 -1.02181,-0.5506392 -2.12592,-0.8259588 -3.31235,-0.8259588 -0.95369,0 -1.86763,0.1873309 -2.74184,0.5619926 -0.86853,0.3689851 -1.61786,0.8685341 -2.24797,1.498647 -0.63011,0.6301131 -1.1325,1.3822741 -1.50717,2.2564851 -0.36898,0.868534 -0.55347,1.779643 -0.55347,2.733328 0,1.027481 0.19017,1.986842 0.5705,2.878083 0.38602,0.891241 0.89692,1.637727 1.53271,2.239456 0.64147,0.601729 1.38511,1.075733 2.23094,1.422011 0.84583,0.340602 1.72571,0.510903 2.63966,0.510903 0.95937,0 1.88183,-0.150432 2.76739,-0.451297 v -0.587538 c -0.84583,0.283835 -1.73423,0.425752 -2.66521,0.425752 -0.67553,0 -1.33402,-0.09367 -1.97549,-0.280996 -0.63579,-0.193008 -1.22616,-0.474004 -1.77112,-0.842989 -0.53929,-0.374662 -1.01329,-0.817444 -1.42202,-1.328347 -0.40304,-0.516579 -0.72093,-1.11547 -0.95368,-1.796673 -0.22707,-0.68688 -0.3406,-1.416335 -0.3406,-2.188365 0,-1.163722 0.28667,-2.239455 0.86002,-3.2272 0.57902,-0.987745 1.3624,-1.7682898 2.35015,-2.3416358 0.98775,-0.5790227 2.06348,-0.8685341 3.2272,-0.8685341 1.08993,0 2.10322,0.2554512 3.03987,0.7663536 0.93665,0.5052257 1.70017,1.1921053 2.29054,2.0606393 l -0.5109,0.332087 C 149.4643,10.553662 148.77175,9.9349024 147.92024,9.4807672 147.07441,9.0209551 146.16047,8.791049 145.1784,8.791049 c -0.78906,0 -1.54406,0.1532707 -2.265,0.4598121 -0.72094,0.3065415 -1.34254,0.7209401 -1.8648,1.2431959 -0.51657,0.516579 -0.92813,1.135338 -1.23468,1.856278 -0.30654,0.72094 -0.45981,1.47594 -0.45981,2.265001 0,0.709587 0.10218,1.376598 0.30654,2.001034 0.21004,0.61876 0.49671,1.160884 0.86002,1.626373 0.36899,0.459812 0.79758,0.85718 1.28577,1.192105 0.4882,0.329249 1.01897,0.579023 1.59232,0.749324 0.57902,0.170301 1.17223,0.255451 1.77964,0.255451 0.94233,0 1.83925,-0.158947 2.69075,-0.476842 v -0.613083 c -0.84015,0.323571 -1.7172,0.485357 -2.63115,0.485357 -0.69255,0 -1.35389,-0.116372 -1.984,-0.349116 -0.63011,-0.238421 -1.19211,-0.573346 -1.68598,-1.004775 -0.48819,-0.431429 -0.87705,-0.982068 -1.16656,-1.651918 -0.28951,-0.669849 -0.43427,-1.407819 -0.43427,-2.21391 0,-0.942331 0.23275,-1.813704 0.69824,-2.614117 0.46549,-0.800414 1.09844,-1.433365 1.89885,-1.898854 0.80041,-0.4654888 1.67179,-0.6982332 2.61412,-0.6982332 0.87989,0 1.69733,0.2043611 2.45233,0.6130832 0.76068,0.408722 1.37944,0.965038 1.85628,1.668947 l -0.5109,0.332087 c -0.42008,-0.613083 -0.96504,-1.09844 -1.63489,-1.456072 -0.66417,-0.363308 -1.38511,-0.544962 -2.16282,-0.544962 -0.83447,0 -1.60367,0.207199 -2.30758,0.621598 -0.70391,0.408721 -1.26306,0.965037 -1.67746,1.668947 -0.40872,0.70391 -0.61308,1.473102 -0.61308,2.307576 0,0.579023 0.0823,1.118308 0.24693,1.617857 0.16463,0.499549 0.3917,0.930978 0.68121,1.294286 0.28951,0.363309 0.62727,0.672689 1.01329,0.92814 0.39169,0.255451 0.81176,0.448459 1.26022,0.579022 0.44846,0.124887 0.91395,0.187331 1.39647,0.187331 0.95936,0 1.85628,-0.190169 2.69075,-0.570507 v -0.587538 c -0.80609,0.357631 -1.67746,0.536447 -2.61412,0.536447 -0.53928,0 -1.04734,-0.08231 -1.52419,-0.246936 -0.47684,-0.164624 -0.90827,-0.405883 -1.29428,-0.723778 -0.38034,-0.317895 -0.68404,-0.735132 -0.91111,-1.251711 -0.22139,-0.522255 -0.33209,-1.109793 -0.33209,-1.762613 0,-0.539286 0.10502,-1.053027 0.31506,-1.541222 0.21003,-0.493873 0.49387,-0.919625 0.8515,-1.277256 0.35763,-0.357632 0.78055,-0.641467 1.26874,-0.851504 0.49387,-0.210037 1.01045,-0.315056 1.54974,-0.315056 0.67553,0 1.3028,0.158947 1.88182,0.476842 0.57903,0.312218 1.05019,0.73797 1.4135,1.277256 l -0.50239,0.332086 c -0.30654,-0.454135 -0.70675,-0.811767 -1.20062,-1.072895 -0.48819,-0.266805 -1.01896,-0.400207 -1.59231,-0.400207 -0.93098,0 -1.72572,0.329248 -2.38421,0.987745 -0.6585,0.658497 -0.98775,1.453234 -0.98775,2.384211 0,0.573346 0.0937,1.08141 0.281,1.524192 0.18733,0.437105 0.44278,0.78906 0.76635,1.055865 0.32925,0.261128 0.69256,0.459812 1.08993,0.596053 0.40305,0.130564 0.83447,0.195846 1.29428,0.195846 0.94233,0 1.81938,-0.195846 2.63115,-0.587538 V 14.30028 Z"
           id="path83" />
        <path
           style="color:#000000;font-style:normal;font-variant:normal;font-weight:normal;font-stretch:normal;font-size:17.43880000000000052px;line-height:1.25;font-family:Monoton;-inkscape-font-specification:Monoton;font-variant-ligatures:normal;font-variant-position:normal;font-variant-caps:normal;font-variant-numeric:normal;font-variant-alternates:normal;font-variant-east-asian:normal;font-feature-settings:normal;font-variation-settings:normal;text-indent:0;text-align:start;text-decoration:none;text-decoration-line:none;text-decoration-style:solid;text-decoration-color:#000000;letter-spacing:1.85207999999999995px;word-spacing:normal;text-transform:none;writing-mode:lr-tb;direction:ltr;text-orientation:mixed;dominant-baseline:auto;baseline-shift:baseline;text-anchor:start;white-space:normal;shape-padding:0;shape-margin:0;inline-size:0;clip-rule:nonzero;display:inline;overflow:visible;visibility:visible;isolation:auto;mix-blend-mode:normal;color-interpolation:sRGB;color-interpolation-filters:linearRGB;solid-color:#000000;solid-opacity:1;vector-effect:none;fill-opacity:1;fill-rule:nonzero;stroke-width:0.242208;stroke-linecap:butt;stroke-linejoin:miter;stroke-miterlimit:4;stroke-dasharray:none;stroke-dashoffset:0;stroke-opacity:1.0;color-rendering:auto;image-rendering:auto;shape-rendering:auto;text-rendering:auto;enable-background:accumulate;stop-color:#000000;stop-opacity:1;stroke:none;"
           d="M 145.17773 6.8300781 C 144.12302 6.8300781 143.11317 7.0380361 142.15039 7.453125 C 141.19498 7.8617683 140.36605 8.415196 139.66797 9.1132812 C 138.97546 9.8057836 138.42204 10.634918 138.00781 11.595703 C 137.59844 12.552829 137.39453 13.560738 137.39453 14.615234 C 137.39453 15.754103 137.60436 16.81845 138.02539 17.804688 L 138.02539 17.806641 C 138.45124 18.78495 139.01957 19.61081 139.73047 20.28125 C 140.43976 20.94441 141.26261 21.463658 142.19531 21.837891 C 143.12909 22.212551 144.10736 22.400391 145.12695 22.400391 C 146.29925 22.400391 147.43339 22.193108 148.52539 21.779297 L 148.60352 21.75 L 148.60352 14.179688 L 148.48242 14.179688 L 147.74805 14.179688 L 147.74805 17.306641 C 146.97068 17.670255 146.13926 17.865234 145.23828 17.865234 C 144.78994 17.865234 144.37067 17.802184 143.98047 17.675781 C 143.5977 17.54423 143.24908 17.352939 142.93164 17.101562 L 142.92969 17.099609 C 142.62326 16.846358 142.37973 16.512975 142.19922 16.091797 C 142.01919 15.66629 141.92773 15.175391 141.92773 14.615234 C 141.92773 13.71281 142.24058 12.954725 142.87891 12.316406 C 143.51722 11.678088 144.27531 11.365234 145.17773 11.365234 C 145.7323 11.365234 146.2422 11.492763 146.71289 11.75 L 146.71484 11.75 C 147.19222 12.002408 147.5754 12.347097 147.87109 12.785156 L 147.9375 12.882812 L 148.64258 12.417969 L 148.57422 12.316406 C 148.20083 11.762156 147.71335 11.322857 147.11914 11.001953 C 146.5227 10.674497 145.87226 10.509766 145.17773 10.509766 C 144.62273 10.509766 144.09051 10.617734 143.58203 10.833984 L 143.58008 10.833984 C 143.07882 11.049641 142.64217 11.342205 142.27344 11.710938 C 141.90448 12.079896 141.61209 12.520379 141.39648 13.027344 C 141.18056 13.529882 141.07227 14.060881 141.07227 14.615234 C 141.07227 15.281745 141.18559 15.886832 141.41406 16.425781 C 141.64747 16.956786 141.96337 17.391666 142.35938 17.722656 C 142.75636 18.049586 143.20137 18.299569 143.69141 18.46875 C 144.18156 18.63797 144.70426 18.720703 145.25586 18.720703 C 146.14714 18.720703 146.97053 18.528566 147.74805 18.208984 L 147.74805 18.556641 C 146.94823 18.910072 146.09592 19.101563 145.17773 19.101562 C 144.70633 19.101562 144.25348 19.039502 143.81641 18.917969 L 143.81445 18.917969 C 143.37791 18.790694 142.96927 18.602245 142.58789 18.353516 L 142.58789 18.355469 C 142.21229 18.10691 141.88529 17.804783 141.60352 17.451172 C 141.32389 17.100271 141.10216 16.683108 140.94141 16.195312 C 140.78114 15.708974 140.70117 15.18278 140.70117 14.615234 C 140.70117 13.800532 140.90054 13.05508 141.29883 12.369141 C 141.70314 11.682823 142.24533 11.142645 142.93164 10.744141 C 143.61752 10.340356 144.36331 10.138672 145.17773 10.138672 C 145.93658 10.138672 146.63649 10.314211 147.2832 10.667969 L 147.28516 10.669922 C 147.93892 11.018966 148.46763 11.488557 148.87695 12.085938 L 148.94336 12.183594 L 149.65625 11.720703 L 149.58789 11.619141 C 149.10038 10.899486 148.46442 10.327604 147.6875 9.9101562 C 146.91518 9.4920574 146.07637 9.2832031 145.17773 9.2832031 C 144.21546 9.2832031 143.32217 9.5221749 142.50391 9.9980469 C 141.68624 10.473572 141.03607 11.121782 140.56055 11.939453 C 140.08467 12.75772 139.8457 13.652962 139.8457 14.615234 C 139.8457 15.435824 139.99448 16.190864 140.29102 16.876953 C 140.58661 17.560867 140.98568 18.128108 141.48828 18.572266 C 141.99305 19.013211 142.56801 19.356338 143.21094 19.599609 L 143.21289 19.599609 C 143.85653 19.83735 144.53216 19.957031 145.23828 19.957031 C 146.10951 19.957031 146.94216 19.783864 147.74805 19.494141 L 147.74805 19.863281 C 146.93244 20.157883 146.07906 20.318359 145.17773 20.318359 C 144.58165 20.318359 144.00162 20.235425 143.43359 20.068359 C 142.87167 19.901453 142.353 19.656357 141.875 19.333984 L 141.875 19.335938 C 141.39639 19.007586 140.97689 18.616688 140.61523 18.166016 C 140.26146 17.712412 139.98137 17.184929 139.77539 16.578125 C 139.57525 15.966577 139.47461 15.313195 139.47461 14.615234 C 139.47461 13.841856 139.62547 13.104736 139.92578 12.398438 C 140.22682 11.690455 140.62964 11.085208 141.13477 10.580078 C 141.6457 10.069147 142.2531 9.6642526 142.96094 9.3632812 C 143.66724 9.0629653 144.40436 8.9121094 145.17773 8.9121094 C 146.1409 8.9121094 147.03473 9.1374719 147.86328 9.5878906 C 148.69854 10.033362 149.37557 10.636685 149.89844 11.404297 L 149.96484 11.503906 L 150.67773 11.039062 L 150.60938 10.9375 C 150.0084 10.053369 149.22821 9.3518347 148.27539 8.8378906 C 147.3214 8.3175323 146.28658 8.0566406 145.17773 8.0566406 C 143.99393 8.0566406 142.89627 8.3518901 141.89062 8.9414062 C 140.88565 9.5247525 140.08514 10.321328 139.49609 11.326172 L 139.49609 11.328125 C 138.91238 12.333728 138.61914 13.431624 138.61914 14.615234 C 138.61914 15.399137 138.73549 16.142079 138.9668 16.841797 L 138.9668 16.84375 C 139.20343 17.536329 139.52749 18.147762 139.93945 18.675781 L 139.94141 18.675781 C 140.35734 19.195696 140.83998 19.646144 141.38867 20.027344 L 141.38867 20.029297 C 141.94362 20.405044 142.54625 20.690273 143.19336 20.886719 L 143.19336 20.888672 L 143.19531 20.888672 C 143.84776 21.079209 144.5164 21.173828 145.20312 21.173828 C 146.09057 21.173828 146.93551 21.022566 147.74805 20.767578 L 147.74805 21.113281 C 146.89927 21.392286 146.01979 21.544922 145.10156 21.544922 C 144.20266 21.544922 143.33962 21.377925 142.50781 21.042969 C 141.67481 20.701942 140.945 20.23602 140.31445 19.644531 C 139.69146 19.054909 139.19088 18.323424 138.81055 17.445312 C 138.43681 16.569524 138.25 15.627773 138.25 14.615234 C 138.25 13.677168 138.43023 12.78354 138.79297 11.929688 C 139.1621 11.068387 139.65464 10.329735 140.27344 9.7109375 C 140.89224 9.0921395 141.62897 8.6016869 142.48438 8.2382812 C 143.34393 7.8699005 144.23991 7.6855469 145.17773 7.6855469 C 146.34543 7.6855469 147.42902 7.9566935 148.43359 8.4980469 C 149.4449 9.0400185 150.26587 9.7746548 150.90234 10.707031 L 150.96875 10.804688 L 151.68359 10.339844 L 151.61328 10.238281 C 150.89881 9.1896274 149.97444 8.3584892 148.8457 7.7480469 C 147.71579 7.1369704 146.49079 6.8300781 145.17773 6.8300781 z M 145.17773 7.0722656 C 146.45325 7.0722656 147.63512 7.3685552 148.73047 7.9609375 C 149.78791 8.5328226 150.63602 9.3223899 151.31836 10.289062 L 151.01172 10.488281 C 150.36399 9.5731008 149.55501 8.822429 148.54883 8.2832031 L 148.54883 8.2851562 C 147.50979 7.7252312 146.3829 7.4433594 145.17773 7.4433594 C 144.20819 7.4433594 143.27753 7.6346822 142.38867 8.015625 C 141.50701 8.3901895 140.74494 8.8976347 140.10352 9.5390625 C 139.46209 10.18049 138.95051 10.946863 138.57031 11.833984 C 138.1951 12.7172 138.00781 13.645931 138.00781 14.615234 C 138.00781 15.657658 138.20096 16.634322 138.58789 17.541016 C 138.9796 18.445387 139.49986 19.206476 140.14844 19.820312 C 140.80082 20.432283 141.55736 20.916048 142.41602 21.267578 C 143.27586 21.613826 144.17257 21.787109 145.10156 21.787109 C 146.07359 21.787109 147.01003 21.635228 147.9082 21.330078 L 147.99023 21.300781 L 147.99023 20.458984 L 147.83008 20.511719 C 146.99696 20.79129 146.1218 20.931641 145.20312 20.931641 C 144.53945 20.931641 143.89357 20.840011 143.26367 20.65625 L 143.26172 20.65625 C 142.63875 20.466952 142.06122 20.191245 141.52734 19.830078 L 141.52539 19.828125 C 140.99686 19.460615 140.53159 19.026082 140.13086 18.525391 C 139.73727 18.020922 139.42604 17.434345 139.19727 16.765625 C 138.97444 16.091583 138.86133 15.375391 138.86133 14.615234 C 138.86133 13.471401 139.1421 12.419105 139.70508 11.449219 C 140.27407 10.478574 141.0412 9.7137364 142.01172 9.1503906 C 142.98156 8.5818613 144.0341 8.2988281 145.17773 8.2988281 C 146.24874 8.2988281 147.24084 8.5493347 148.16016 9.0507812 C 149.04232 9.5266176 149.74542 10.185231 150.31445 10.988281 L 150.00586 11.1875 C 149.47201 10.437445 148.80759 9.8176414 147.97852 9.375 C 147.11541 8.9057944 146.1787 8.6699219 145.17773 8.6699219 C 144.37299 8.6699219 143.60082 8.8259051 142.86523 9.1386719 C 142.13119 9.4507835 141.49648 9.8746228 140.96289 10.408203 C 140.43487 10.936231 140.01518 11.568837 139.70312 12.302734 C 139.39036 13.038316 139.23242 13.810491 139.23242 14.615234 C 139.23242 15.336447 139.33634 16.016973 139.54492 16.654297 L 139.54688 16.65625 C 139.76078 17.286382 140.05343 17.839324 140.42578 18.316406 L 140.42578 18.318359 C 140.8021 18.787311 141.24051 19.193658 141.73828 19.535156 C 142.23668 19.871281 142.78046 20.127087 143.36523 20.300781 C 143.95525 20.474317 144.55901 20.560547 145.17773 20.560547 C 146.13369 20.560547 147.0469 20.399186 147.91211 20.076172 L 147.99023 20.046875 L 147.99023 19.173828 L 147.82617 19.236328 C 146.99977 19.554606 146.13794 19.714844 145.23828 19.714844 C 144.55929 19.714844 143.91346 19.600794 143.29688 19.373047 C 142.67958 19.139476 142.13142 18.812537 141.64844 18.390625 C 141.17465 17.971925 140.79515 17.437036 140.51172 16.78125 C 140.22922 16.12764 140.08789 15.406827 140.08789 14.615234 C 140.08789 13.692844 140.31442 12.845059 140.76953 12.0625 C 141.22498 11.279343 141.84184 10.662484 142.625 10.207031 C 143.40756 9.7519256 144.25534 9.5253906 145.17773 9.5253906 C 146.03887 9.5253906 146.83459 9.7237014 147.57227 10.123047 L 147.57422 10.123047 C 148.27939 10.501942 148.83577 11.030702 149.29102 11.667969 L 148.98438 11.867188 C 148.56368 11.286268 148.04678 10.80123 147.39844 10.455078 C 146.7168 10.082219 145.9743 9.8964844 145.17773 9.8964844 C 144.32321 9.8964844 143.53054 10.110143 142.80859 10.535156 C 142.08866 10.953728 141.51377 11.526001 141.08984 12.246094 L 141.08789 12.246094 C 140.66874 12.967975 140.45898 13.760988 140.45898 14.615234 C 140.45898 15.205734 140.54392 15.758726 140.71289 16.271484 C 140.88139 16.782788 141.11466 17.2278 141.41406 17.603516 C 141.7113 17.976522 142.05864 18.294297 142.45508 18.556641 C 142.85657 18.818487 143.28832 19.016547 143.74805 19.150391 L 143.75 19.150391 C 144.20927 19.278289 144.68477 19.34375 145.17773 19.34375 C 146.1531 19.34375 147.06951 19.149321 147.91992 18.761719 L 147.99023 18.728516 L 147.99023 17.876953 L 147.82031 17.953125 C 147.03012 18.303705 146.17711 18.478516 145.25586 18.478516 C 144.7289 18.478516 144.23307 18.39831 143.76953 18.238281 C 143.30589 18.078215 142.88871 17.845969 142.51367 17.537109 C 142.149 17.23231 141.85744 16.832232 141.63672 16.330078 C 141.4224 15.824517 141.31445 15.254364 141.31445 14.615234 C 141.31445 14.091671 141.4155 13.594418 141.61914 13.121094 C 141.82361 12.640314 142.09901 12.229116 142.44531 11.882812 C 142.79185 11.536281 143.20065 11.261059 143.67578 11.056641 C 144.15505 10.852816 144.65417 10.751953 145.17773 10.751953 C 145.83426 10.751953 146.44035 10.904558 147.00195 11.212891 C 147.52632 11.495635 147.9376 11.893538 148.2793 12.367188 L 147.97852 12.566406 C 147.67114 12.14488 147.30038 11.786808 146.82812 11.537109 C 146.32242 11.260737 145.76987 11.123047 145.17773 11.123047 C 144.2182 11.123047 143.38766 11.465856 142.70898 12.144531 C 142.03031 12.823206 141.68555 13.655704 141.68555 14.615234 C 141.68555 15.20177 141.78192 15.727443 141.97656 16.1875 C 142.17033 16.639609 142.43758 17.008904 142.77734 17.289062 L 142.7793 17.291016 C 143.1191 17.560511 143.49418 17.765639 143.9043 17.90625 L 143.90625 17.90625 C 144.32214 18.040975 144.76701 18.107422 145.23828 18.107422 C 146.19739 18.107422 147.09359 17.909428 147.92188 17.509766 L 147.99023 17.476562 L 147.99023 14.421875 L 148.36133 14.421875 L 148.36133 21.566406 C 147.31953 21.951239 146.24381 22.158203 145.12695 22.158203 C 144.137 22.158203 143.19064 21.97659 142.28516 21.613281 C 141.37861 21.249543 140.58366 20.745994 139.89648 20.103516 C 139.21144 19.457153 138.66211 18.660223 138.24805 17.708984 C 137.84027 16.753793 137.63672 15.724337 137.63672 14.615234 C 137.63672 13.592062 137.83375 12.618943 138.23047 11.691406 C 138.63368 10.756177 139.16994 9.9550607 139.83984 9.2851562 C 140.51552 8.6094818 141.31686 8.0732284 142.24609 7.6757812 C 143.17934 7.2734264 144.15478 7.0722656 145.17773 7.0722656 z M 148.97461 14.179688 L 148.97461 14.300781 L 148.97461 21.787109 L 149.83008 21.787109 L 149.83008 14.179688 L 148.97461 14.179688 z M 150.20117 14.179688 L 150.20117 14.300781 L 150.20117 21.787109 L 151.05664 21.787109 L 151.05664 14.179688 L 150.20117 14.179688 z M 151.42578 14.179688 L 151.42578 14.300781 L 151.42578 21.787109 L 152.28125 21.787109 L 152.28125 14.179688 L 151.42578 14.179688 z M 149.2168 14.421875 L 149.58789 14.421875 L 149.58789 21.544922 L 149.2168 21.544922 L 149.2168 14.421875 z M 150.44336 14.421875 L 150.8125 14.421875 L 150.8125 21.544922 L 150.44336 21.544922 L 150.44336 14.421875 z M 151.66797 14.421875 L 152.03906 14.421875 L 152.03906 21.544922 L 151.66797 21.544922 L 151.66797 14.421875 z "
           id="path85" />
      </g>
      <g
         id="g87"
         style="opacity:1">
        <path
           style="color:#000000;font-style:normal;font-variant:normal;font-weight:normal;font-stretch:normal;font-size:17.43880000000000052px;line-height:1.25;font-family:Monoton;-inkscape-font-specification:Monoton;font-variant-ligatures:normal;font-variant-position:normal;font-variant-caps:normal;font-variant-numeric:normal;font-variant-alternates:normal;font-variant-east-asian:normal;font-feature-settings:normal;font-variation-settings:normal;text-indent:0;text-align:start;text-decoration:none;text-decoration-line:none;text-decoration-style:solid;text-decoration-color:#000000;letter-spacing:1.85207999999999995px;word-spacing:normal;text-transform:none;writing-mode:lr-tb;direction:ltr;text-orientation:mixed;dominant-baseline:auto;baseline-shift:baseline;text-anchor:start;white-space:normal;shape-padding:0;shape-margin:0;inline-size:0;clip-rule:nonzero;display:inline;overflow:visible;visibility:visible;isolation:auto;mix-blend-mode:normal;color-interpolation:sRGB;color-interpolation-filters:linearRGB;solid-color:#000000;solid-opacity:1;vector-effect:none;fill:#37c871;fill-opacity:1;fill-rule:nonzero;stroke-width:0.242208;stroke-linecap:butt;stroke-linejoin:miter;stroke-miterlimit:4;stroke-dasharray:none;stroke-dashoffset:0;stroke-opacity:1.0;color-rendering:auto;image-rendering:auto;shape-rendering:auto;text-rendering:auto;enable-background:accumulate;stop-color:#000000;stop-opacity:1;stroke:none;"
           d="m 169.0078,7.5648833 h 0.61308 V 21.665789 h -0.61308 z m -13.48782,0 h 0.61308 V 21.665789 h -0.61308 z m 12.26165,0 h 0.61309 V 21.665789 h -0.61309 z m -1.22616,0 h 0.61308 V 21.665789 h -0.61308 z m -1.22617,0 h 0.61308 V 21.665789 h -0.61308 v -5.526261 h -5.51774 v 5.526261 h -0.61309 V 7.5648833 h 0.61309 v 5.5092307 h 5.51774 z m -7.35699,0 h 0.61308 V 21.665789 h -0.61308 z m -1.22617,0 h 0.61308 V 21.665789 h -0.61308 z m 8.58316,7.9615617 v -0.613083 h -5.51774 v 0.613083 z m 0,-1.226165 v -0.613083 h -5.51774 v 0.613083 z"
           id="path89" />
        <path
           style="color:#000000;font-style:normal;font-variant:normal;font-weight:normal;font-stretch:normal;font-size:17.43880000000000052px;line-height:1.25;font-family:Monoton;-inkscape-font-specification:Monoton;font-variant-ligatures:normal;font-variant-position:normal;font-variant-caps:normal;font-variant-numeric:normal;font-variant-alternates:normal;font-variant-east-asian:normal;font-feature-settings:normal;font-variation-settings:normal;text-indent:0;text-align:start;text-decoration:none;text-decoration-line:none;text-decoration-style:solid;text-decoration-color:#000000;letter-spacing:1.85207999999999995px;word-spacing:normal;text-transform:none;writing-mode:lr-tb;direction:ltr;text-orientation:mixed;dominant-baseline:auto;baseline-shift:baseline;text-anchor:start;white-space:normal;shape-padding:0;shape-margin:0;inline-size:0;clip-rule:nonzero;display:inline;overflow:visible;visibility:visible;isolation:auto;mix-blend-mode:normal;color-interpolation:sRGB;color-interpolation-filters:linearRGB;solid-color:#000000;solid-opacity:1;vector-effect:none;fill-opacity:1;fill-rule:nonzero;stroke-width:0.242208;stroke-linecap:butt;stroke-linejoin:miter;stroke-miterlimit:4;stroke-dasharray:none;stroke-dashoffset:0;stroke-opacity:1.0;color-rendering:auto;image-rendering:auto;shape-rendering:auto;text-rendering:auto;enable-background:accumulate;stop-color:#000000;stop-opacity:1;stroke:none;"
           d="M 155.39844 7.4433594 L 155.39844 7.5644531 L 155.39844 21.787109 L 156.25391 21.787109 L 156.25391 7.4433594 L 155.39844 7.4433594 z M 156.625 7.4433594 L 156.625 7.5644531 L 156.625 21.787109 L 157.48047 21.787109 L 157.48047 7.4433594 L 156.625 7.4433594 z M 157.85156 7.4433594 L 157.85156 7.5644531 L 157.85156 21.787109 L 158.70703 21.787109 L 158.70703 7.4433594 L 157.85156 7.4433594 z M 159.07812 7.4433594 L 159.07812 21.787109 L 159.93359 21.787109 L 159.93359 16.259766 L 165.20898 16.259766 L 165.20898 21.787109 L 166.06445 21.787109 L 166.06445 7.4433594 L 165.20898 7.4433594 L 165.20898 7.5644531 L 165.20898 12.953125 L 159.93359 12.953125 L 159.93359 7.4433594 L 159.07812 7.4433594 z M 166.43359 7.4433594 L 166.43359 7.5644531 L 166.43359 21.787109 L 167.28906 21.787109 L 167.28906 7.4433594 L 166.43359 7.4433594 z M 167.66016 7.4433594 L 167.66016 7.5644531 L 167.66016 21.787109 L 168.51562 21.787109 L 168.51562 7.4433594 L 167.66016 7.4433594 z M 168.88672 7.4433594 L 168.88672 7.5644531 L 168.88672 21.787109 L 169.74219 21.787109 L 169.74219 7.4433594 L 168.88672 7.4433594 z M 155.64062 7.6855469 L 156.01172 7.6855469 L 156.01172 21.544922 L 155.64062 21.544922 L 155.64062 7.6855469 z M 156.86719 7.6855469 L 157.23828 7.6855469 L 157.23828 21.544922 L 156.86719 21.544922 L 156.86719 7.6855469 z M 158.09375 7.6855469 L 158.46484 7.6855469 L 158.46484 21.544922 L 158.09375 21.544922 L 158.09375 7.6855469 z M 159.32031 7.6855469 L 159.69141 7.6855469 L 159.69141 13.195312 L 165.45117 13.195312 L 165.45117 7.6855469 L 165.82031 7.6855469 L 165.82031 21.544922 L 165.45117 21.544922 L 165.45117 16.017578 L 159.69141 16.017578 L 159.69141 21.544922 L 159.32031 21.544922 L 159.32031 7.6855469 z M 166.67578 7.6855469 L 167.04688 7.6855469 L 167.04688 21.544922 L 166.67578 21.544922 L 166.67578 7.6855469 z M 167.90234 7.6855469 L 168.27344 7.6855469 L 168.27344 21.544922 L 167.90234 21.544922 L 167.90234 7.6855469 z M 169.12891 7.6855469 L 169.5 7.6855469 L 169.5 21.544922 L 169.12891 21.544922 L 169.12891 7.6855469 z M 159.69141 13.566406 L 159.69141 14.421875 L 165.45117 14.421875 L 165.45117 14.300781 L 165.45117 13.566406 L 159.69141 13.566406 z M 159.93359 13.808594 L 165.20898 13.808594 L 165.20898 14.179688 L 159.93359 14.179688 L 159.93359 13.808594 z M 159.69141 14.792969 L 159.69141 15.648438 L 165.45117 15.648438 L 165.45117 15.527344 L 165.45117 14.792969 L 159.69141 14.792969 z M 159.93359 15.035156 L 165.20898 15.035156 L 165.20898 15.40625 L 159.93359 15.40625 L 159.93359 15.035156 z "
           id="path91" />
      </g>
      <g
         id="g93"
         style="opacity:1">
        <path
           style="color:#000000;font-style:normal;font-variant:normal;font-weight:normal;font-stretch:normal;font-size:17.43880000000000052px;line-height:1.25;font-family:Monoton;-inkscape-font-specification:Monoton;font-variant-ligatures:normal;font-variant-position:normal;font-variant-caps:normal;font-variant-numeric:normal;font-variant-alternates:normal;font-variant-east-asian:normal;font-feature-settings:normal;font-variation-settings:normal;text-indent:0;text-align:start;text-decoration:none;text-decoration-line:none;text-decoration-style:solid;text-decoration-color:#000000;letter-spacing:1.85207999999999995px;word-spacing:normal;text-transform:none;writing-mode:lr-tb;direction:ltr;text-orientation:mixed;dominant-baseline:auto;baseline-shift:baseline;text-anchor:start;white-space:normal;shape-padding:0;shape-margin:0;inline-size:0;clip-rule:nonzero;display:inline;overflow:visible;visibility:visible;isolation:auto;mix-blend-mode:normal;color-interpolation:sRGB;color-interpolation-filters:linearRGB;solid-color:#000000;solid-opacity:1;vector-effect:none;fill:#37c871;fill-opacity:1;fill-rule:nonzero;stroke-width:0.242208;stroke-linecap:butt;stroke-linejoin:miter;stroke-miterlimit:4;stroke-dasharray:none;stroke-dashoffset:0;stroke-opacity:1.0;color-rendering:auto;image-rendering:auto;shape-rendering:auto;text-rendering:auto;enable-background:accumulate;stop-color:#000000;stop-opacity:1;stroke:none;"
           d="M 172.83537,8.1779661 V 7.5648833 h 9.19624 v 0.6130828 z m 0,1.2261657 V 8.791049 h 9.19624 v 0.6130828 z m 0,1.2261662 v -0.613083 h 9.19624 v 0.613083 h -2.45233 V 21.665789 H 178.9662 V 10.630298 h -0.61308 v 11.035491 h -0.61309 V 10.630298 h -0.61308 v 11.035491 h -0.61308 V 10.630298 h -0.61309 V 21.665789 H 175.2877 V 10.630298 Z"
           id="path95" />
        <path
           style="color:#000000;font-style:normal;font-variant:normal;font-weight:normal;font-stretch:normal;font-size:17.43880000000000052px;line-height:1.25;font-family:Monoton;-inkscape-font-specification:Monoton;font-variant-ligatures:normal;font-variant-position:normal;font-variant-caps:normal;font-variant-numeric:normal;font-variant-alternates:normal;font-variant-east-asian:normal;font-feature-settings:normal;font-variation-settings:normal;text-indent:0;text-align:start;text-decoration:none;text-decoration-line:none;text-decoration-style:solid;text-decoration-color:#000000;letter-spacing:1.85207999999999995px;word-spacing:normal;text-transform:none;writing-mode:lr-tb;direction:ltr;text-orientation:mixed;dominant-baseline:auto;baseline-shift:baseline;text-anchor:start;white-space:normal;shape-padding:0;shape-margin:0;inline-size:0;clip-rule:nonzero;display:inline;overflow:visible;visibility:visible;isolation:auto;mix-blend-mode:normal;color-interpolation:sRGB;color-interpolation-filters:linearRGB;solid-color:#000000;solid-opacity:1;vector-effect:none;fill-opacity:1;fill-rule:nonzero;stroke-width:0.242208;stroke-linecap:butt;stroke-linejoin:miter;stroke-miterlimit:4;stroke-dasharray:none;stroke-dashoffset:0;stroke-opacity:1.0;color-rendering:auto;image-rendering:auto;shape-rendering:auto;text-rendering:auto;enable-background:accumulate;stop-color:#000000;stop-opacity:1;stroke:none;"
           d="M 172.71484 7.4433594 L 172.71484 8.2988281 L 172.83594 8.2988281 L 182.15234 8.2988281 L 182.15234 7.4433594 L 172.71484 7.4433594 z M 172.95703 7.6855469 L 181.91016 7.6855469 L 181.91016 8.0566406 L 172.95703 8.0566406 L 172.95703 7.6855469 z M 172.71484 8.6699219 L 172.71484 9.5253906 L 172.83594 9.5253906 L 182.15234 9.5253906 L 182.15234 8.6699219 L 172.71484 8.6699219 z M 172.95703 8.9121094 L 181.91016 8.9121094 L 181.91016 9.2832031 L 172.95703 9.2832031 L 172.95703 8.9121094 z M 172.71484 9.8964844 L 172.71484 10.751953 L 172.83594 10.751953 L 175.16602 10.751953 L 175.16602 21.787109 L 176.02148 21.787109 L 176.02148 10.751953 L 176.39258 10.751953 L 176.39258 21.787109 L 177.24805 21.787109 L 177.24805 10.751953 L 177.61914 10.751953 L 177.61914 21.787109 L 178.47461 21.787109 L 178.47461 10.751953 L 178.8457 10.751953 L 178.8457 21.787109 L 179.70117 21.787109 L 179.70117 10.751953 L 182.15234 10.751953 L 182.15234 9.8964844 L 172.71484 9.8964844 z M 172.95703 10.138672 L 181.91016 10.138672 L 181.91016 10.509766 L 179.45898 10.509766 L 179.45898 21.544922 L 179.08789 21.544922 L 179.08789 10.509766 L 178.23242 10.509766 L 178.23242 21.544922 L 177.86133 21.544922 L 177.86133 10.509766 L 177.00586 10.509766 L 177.00586 21.544922 L 176.63477 21.544922 L 176.63477 10.509766 L 175.7793 10.509766 L 175.7793 21.544922 L 175.4082 21.544922 L 175.4082 10.509766 L 172.95703 10.509766 L 172.95703 10.138672 z "
           id="path97" />
      </g>
    </g>
  </g>
</svg>
