<?xml version="1.0" encoding="UTF-8" standalone="no"?>
<svg
   xmlns:dc="http://purl.org/dc/elements/1.1/"
   xmlns:cc="http://creativecommons.org/ns#"
   xmlns:rdf="http://www.w3.org/1999/02/22-rdf-syntax-ns#"
   xmlns:svg="http://www.w3.org/2000/svg"
   xmlns="http://www.w3.org/2000/svg"
   xmlns:sodipodi="http://sodipodi.sourceforge.net/DTD/sodipodi-0.dtd"
   xmlns:inkscape="http://www.inkscape.org/namespaces/inkscape"
   version="1.1"
   id="Capa_1"
   x="0px"
   y="0px"
   viewBox="28 -43 141.7 141.7"
   style="enable-background:new 28 -43 141.7 141.7;"
   xml:space="preserve"
   sodipodi:docname="cf_icon_armed_active.svg"
   inkscape:version="1.0.1 (c497b03c, 2020-09-10)"><metadata
   id="metadata23"><rdf:RDF><cc:Work
       rdf:about=""><dc:format>image/svg+xml</dc:format><dc:type
         rdf:resource="http://purl.org/dc/dcmitype/StillImage" /></cc:Work></rdf:RDF></metadata><defs
   id="defs21" /><sodipodi:namedview
   pagecolor="#ffffff"
   bordercolor="#666666"
   borderopacity="1"
   objecttolerance="10"
   gridtolerance="10"
   guidetolerance="10"
   inkscape:pageopacity="0"
   inkscape:pageshadow="2"
   inkscape:window-width="1744"
   inkscape:window-height="1065"
   id="namedview19"
   showgrid="false"
   inkscape:zoom="5.1870148"
   inkscape:cx="103.33496"
   inkscape:cy="95.450905"
   inkscape:window-x="0"
   inkscape:window-y="25"
   inkscape:window-maximized="0"
   inkscape:current-layer="Capa_1" />
<style
   type="text/css"
   id="style10">
	.st0{fill:#FFCC00;}
</style>
<g
   id="g16"
   style="fill:#00d455">
	<g
   id="g14"
   style="fill:#00d455">
		<path
   class="st0"
   d="M157.1,71.9l-52-97.5c-1.3-2.4-3.8-4-6.6-4c-2.8,0-5.3,1.5-6.6,4L39.6,71.9c-1.2,2.3-1.2,5.1,0.2,7.4    c1.4,2.3,3.8,3.7,6.5,3.7h104.3c2.6,0,5.1-1.4,6.4-3.7C158.3,77,158.4,74.2,157.1,71.9L157.1,71.9z M98.5,67.9    c-4.1,0-7.5-3.3-7.5-7.5c0-4.1,3.4-7.5,7.5-7.5c4.1,0,7.5,3.4,7.5,7.5C106,64.6,102.6,67.9,98.5,67.9L98.5,67.9z M106,38    c0,4.2-3.4,7.5-7.5,7.5c-4.1,0-7.5-3.3-7.5-7.5V8c0-4.1,3.4-7.5,7.5-7.5c4.1,0,7.5,3.4,7.5,7.5V38z M106,38"
   id="path12"
   style="fill:#00d455" />
	</g>
</g>
</svg>
